<svg width="25" height="23" viewBox="0 0 25 23" fill="none" xmlns="http://www.w3.org/2000/svg">
<path d="M14.4575 0.345207C14.1824 0.215671 13.8583 0.250006 13.6211 0.438847L5.93107 6.51142H2.2568C1.38566 6.51142 0.675781 7.21217 0.675781 8.0721V14.3148C0.675781 15.1747 1.38566 15.8755 2.2568 15.8755H5.93107L13.6195 21.948C13.7634 22.0604 13.9389 22.1181 14.1144 22.1181C14.2314 22.1181 14.3484 22.0932 14.4575 22.0417C14.731 21.9106 14.9049 21.6375 14.9049 21.3378V1.04907C14.9049 0.749421 14.731 0.476303 14.4575 0.345207ZM5.41882 14.3148H2.2568V8.0721H5.41882V14.3148ZM13.3239 19.7132L6.99984 14.719V7.66788L13.3239 2.67373V19.7132Z" fill="#979797"/>
<path d="M18.9095 5.67617C18.598 5.37184 18.0985 5.37652 17.7918 5.68241C17.485 5.98986 17.4882 6.48304 17.7981 6.78581C18.9917 7.95163 19.6494 9.51698 19.6494 11.1947C19.6494 12.8724 18.9917 14.4378 17.7981 15.6036C17.4866 15.9064 17.4835 16.3995 17.7918 16.707C17.9467 16.8615 18.1506 16.938 18.353 16.938C18.5538 16.938 18.7546 16.8631 18.9095 16.7117C20.4067 15.2524 21.2303 13.2938 21.2303 11.1947C21.2303 9.0956 20.4067 7.13696 18.9095 5.67617Z" fill="#979797"/>
<path d="M21.1377 3.4764C20.8278 3.17363 20.3266 3.17519 20.0199 3.48108C19.7132 3.78698 19.7147 4.28171 20.0246 4.58448C21.8207 6.34336 22.8104 8.69061 22.8104 11.1939C22.8104 13.6972 21.8207 16.0445 20.0246 17.8034C19.7147 18.1061 19.7132 18.6009 20.0199 18.9068C20.1748 19.0613 20.3772 19.1377 20.5812 19.1377C20.7819 19.1377 20.9827 19.0628 21.1377 18.9114C23.2357 16.8576 24.3915 14.1171 24.3915 11.1939C24.3915 8.27078 23.2357 5.53025 21.1377 3.4764Z" fill="#979797"/>
</svg>
