<svg width="30" height="30" viewBox="0 0 30 30" fill="none" xmlns="http://www.w3.org/2000/svg">
<circle cx="15" cy="15" r="15" transform="rotate(-180 15 15)" fill="#027368"/>
<path d="M22 15.5C22 15.9487 21.6362 16.3125 21.1875 16.3125H12.1282L16.0891 20.2733C16.4128 20.5971 16.4081 21.1234 16.0787 21.4413C15.7575 21.7515 15.2469 21.7469 14.9312 21.4312L9.06435 15.5644C9.02881 15.5288 9.02881 15.4712 9.06435 15.4356L14.93 9.57001C15.2448 9.25521 15.7552 9.25522 16.07 9.57003C16.3838 9.88383 16.3849 10.3922 16.0725 10.7074L12.1282 14.6875L21.1875 14.6875C21.6362 14.6875 22 15.0513 22 15.5Z" fill="white"/>
</svg>
