<svg width="47" height="47" viewBox="0 0 47 47" fill="none" xmlns="http://www.w3.org/2000/svg">
<mask id="mask0_1619_14805" style="mask-type:alpha" maskUnits="userSpaceOnUse" x="0" y="0" width="47" height="47">
<rect x="0.724609" y="0.529785" width="45.5246" height="45.5246" fill="#C4C4C4"/>
</mask>
<g mask="url(#mask0_1619_14805)">
<path d="M20.8775 13.487C21.551 14.43 22.6796 15.0499 23.9564 15.0499C25.2346 15.0499 26.3645 14.4285 27.0377 13.4836C28.5781 12.6815 28.5598 11.3217 28.5515 10.7365C28.5173 8.3247 26.6435 6.4981 24.0961 6.39317C22.7607 6.33743 21.9813 6.95907 21.7349 7.19558C21.5216 7.24296 21.0625 7.38063 20.6041 7.74798C20.0524 8.19001 19.3875 9.06477 19.3522 10.7221C19.3397 11.3097 19.3117 12.6762 20.8775 13.487ZM23.9564 14.4332C22.2513 14.4332 20.8643 13.0989 20.8643 11.4589V10.6407C21.6515 10.3446 22.1432 9.55731 22.393 9.03458C23.0748 9.71667 24.6938 11.0394 27.0485 11.118V11.4588C27.0485 13.0989 25.6613 14.4332 23.9564 14.4332ZM19.9933 10.7348C20.05 8.07208 21.8638 7.79523 21.9389 7.78507C22.0187 7.7752 22.093 7.73528 22.1448 7.67621C22.1705 7.64682 22.7894 6.95726 24.0686 7.00958C26.2651 7.1 27.8808 8.67093 27.9103 10.7451C27.9168 11.2082 27.8889 11.7071 27.6184 12.1561C27.6648 11.9305 27.6897 11.6975 27.6897 11.4589V11.0886C27.8061 11.0381 27.8848 10.9235 27.8784 10.7933C27.87 10.6232 27.7192 10.4941 27.5429 10.4999C24.461 10.6409 22.5618 8.28936 22.5432 8.26592L22.5425 8.26643C22.5032 8.2165 22.4485 8.17724 22.3815 8.15742C22.2128 8.10779 22.0331 8.19893 21.981 8.36157C21.9757 8.37826 21.4328 10.0333 20.3285 10.1374C20.1523 10.1541 20.0235 10.305 20.0407 10.4745C20.0521 10.5862 20.1247 10.6771 20.2229 10.722V11.4588C20.2229 11.7005 20.2483 11.9367 20.2958 12.1651C20.0268 11.7259 19.9829 11.2279 19.9933 10.7348Z" fill="#979797" stroke="#979797" stroke-width="0.779402"/>
<path d="M24.0577 12.1865H23.6846C22.9593 12.1865 22.3691 12.7541 22.3691 13.4518V13.8226C22.3691 13.993 22.5127 14.131 22.6898 14.131C22.8668 14.131 23.0104 13.993 23.0104 13.8226V13.4518C23.0104 13.0942 23.3128 12.8034 23.6846 12.8034H24.0577C24.4295 12.8034 24.7319 13.0942 24.7319 13.4518V13.8226C24.7319 13.993 24.8755 14.131 25.0525 14.131C25.2296 14.131 25.3732 13.993 25.3732 13.8226V13.4518C25.3732 12.7541 24.7831 12.1865 24.0577 12.1865Z" fill="#979797"/>
<path d="M24.2169 13.2817H23.5238C23.3467 13.2817 23.2031 13.4198 23.2031 13.5902C23.2031 13.7606 23.3467 13.8986 23.5238 13.8986H24.2169C24.3939 13.8986 24.5375 13.7606 24.5375 13.5902C24.5375 13.4198 24.394 13.2817 24.2169 13.2817Z" fill="#979797"/>
<path d="M29.344 36.2037C29.9318 34.3954 31.3037 28.8636 31.3037 28.8636C31.3508 28.7048 31.8104 27.0204 30.6055 25.7595H31.9956C32.4859 25.7595 32.8848 25.3758 32.8848 24.9042V24.3026C32.8848 24.1735 32.854 24.0514 32.8005 23.9415C32.8077 23.9416 32.8148 23.9426 32.8221 23.9426C33.2704 23.9426 33.692 23.7746 34.009 23.4696C34.3261 23.1646 34.5008 22.7591 34.5008 22.3278C34.5008 21.8965 34.3261 21.491 34.009 21.186C34.009 21.186 29.7287 17.1963 28.3924 15.7834C28.0092 15.3782 27.4811 15.0918 26.8684 15.0918H25.2309C25.0671 15.0918 24.9295 15.2106 24.912 15.3673C24.8677 15.7637 24.4482 16.0742 23.957 16.0742C23.4658 16.0742 23.0463 15.7637 23.002 15.3673C22.9845 15.2106 22.847 15.0918 22.6832 15.0918H21.0458C20.4699 15.0918 19.9626 15.3406 19.5892 15.7092C19.5871 15.7113 19.5844 15.7126 19.5822 15.7147C18.1516 17.1024 13.8355 21.2426 13.8355 21.2426C13.5184 21.5475 13.3438 21.953 13.3438 22.3843C13.3438 22.8156 13.5183 23.2211 13.8354 23.5261C14.1516 23.8302 14.5718 23.9979 15.0188 23.9989C14.9813 24.0935 14.9598 24.1955 14.9598 24.3026V24.9043C14.9598 25.3758 15.3586 25.7595 15.849 25.7595H17.2664C16.0626 27.0194 16.5203 28.702 16.5682 28.8632C16.5682 28.8632 17.9864 34.3381 18.4863 36.1564C18.5859 36.5191 18.9371 36.7929 19.3455 36.7929H21.5345C21.7115 36.7929 21.8551 36.6549 21.8551 36.4845V32.7493C21.8551 32.6178 21.9663 32.5109 22.1029 32.5109H25.7417C25.8783 32.5109 25.9896 32.6178 25.9896 32.7493V36.4845C25.9896 36.6549 26.1332 36.7929 26.3102 36.7929H28.4991C28.8812 36.7928 29.2362 36.5356 29.344 36.2037ZM33.8596 22.3277C33.8596 22.5943 33.7516 22.8449 33.5557 23.0334C33.3598 23.2219 33.0993 23.3256 32.8221 23.3256C32.545 23.3256 32.2845 23.2218 32.088 23.0328L29.1138 20.1862L30.5884 18.7677L33.5558 21.622C33.7516 21.8106 33.8596 22.0612 33.8596 22.3277ZM28.8456 17.0914L30.1349 18.3315L28.8456 19.5717V17.0914ZM28.8456 20.7997L31.6118 23.4472H28.8456V20.7997ZM23.9571 16.6909C24.6751 16.6909 25.2853 16.2842 25.4869 15.7085H26.8684C27.605 15.7085 28.2043 16.2849 28.2043 16.9934V21.6095H26.829C26.6519 21.6095 26.5084 21.7475 26.5084 21.9179C26.5084 22.0883 26.6519 22.2263 26.829 22.2263H28.2043V23.4472H26.6C26.1398 22.4649 25.1131 21.7792 23.9223 21.7792C22.7315 21.7792 21.7047 22.4649 21.2446 23.4472H19.7099V22.6618H20.7934C20.9705 22.6618 21.1141 22.5237 21.1141 22.3533C21.1141 22.1829 20.9705 22.0449 20.7934 22.0449H19.7099V16.9934C19.7099 16.3239 20.2451 15.7732 20.9255 15.7144V19.5957C20.9255 19.7661 21.069 19.9041 21.2461 19.9041C21.4232 19.9041 21.5667 19.7661 21.5667 19.5957V15.7085H22.4273C22.629 16.2842 23.2392 16.6909 23.9571 16.6909ZM23.9223 27.4274C24.1511 27.4274 24.3735 27.4013 24.5873 27.3535V31.8939H23.2575V27.3535C23.4713 27.4013 23.6936 27.4274 23.9223 27.4274ZM23.9223 26.8105C22.6571 26.8105 21.6276 25.8203 21.6276 24.6032C21.6276 23.3862 22.6571 22.396 23.9223 22.396C25.1876 22.396 26.2171 23.3862 26.2171 24.6032C26.2171 25.8203 25.1876 26.8105 23.9223 26.8105ZM19.0687 19.6821L17.7165 18.3815L19.0687 17.0807V19.6821ZM19.0687 20.7758V23.4472H16.2915L19.0687 20.7758ZM13.9851 22.3842C13.9851 22.1176 14.0931 21.867 14.289 21.6785L17.2631 18.8176L18.7303 20.2289L15.7562 23.0898C15.5602 23.2782 15.2997 23.382 15.0226 23.382C14.7455 23.382 14.485 23.2782 14.289 23.0898C14.093 22.9013 13.9851 22.6507 13.9851 22.3842ZM15.6011 24.904V24.3024C15.6011 24.1709 15.7123 24.064 15.849 24.064L21.0407 24.064C21.0054 24.2386 20.9863 24.4188 20.9863 24.6032C20.9863 24.7876 21.0054 24.9678 21.0407 25.1425H18.777H15.849C15.7123 25.1425 15.6011 25.0355 15.6011 24.904ZM18.2362 25.7594H18.4564V33.5296L17.1887 28.7075C17.1872 28.7019 17.1856 28.6963 17.1838 28.6908C17.1779 28.6725 16.6606 26.817 18.2362 25.7594ZM21.2138 32.7492V36.176H19.3455C19.2088 36.176 19.0977 36.0689 19.0977 35.9375V28.9519C19.153 29.0445 19.2557 29.1077 19.3747 29.1077L21.0594 29.1078C21.2364 29.1078 21.38 28.9697 21.38 28.7993C21.38 28.629 21.2364 28.4909 21.0594 28.4909L19.3747 28.4908C19.2557 28.4908 19.153 28.554 19.0977 28.6466V25.7594H21.2447C21.5236 26.3546 22.0104 26.8408 22.6162 27.1315V31.8939H22.1029C21.6127 31.8939 21.2138 32.2776 21.2138 32.7492ZM28.4991 36.176H26.6309V32.7492C26.6309 32.2776 26.232 31.8939 25.7417 31.8939H25.2285V27.1314C25.8342 26.8407 26.3211 26.3546 26.5999 25.7594L28.7469 25.7594V30.02C28.6949 29.9849 28.6319 29.964 28.5636 29.964H26.1898C26.0128 29.964 25.8692 30.102 25.8692 30.2724C25.8692 30.4428 26.0128 30.5809 26.1898 30.5809H28.5636C28.6319 30.5809 28.695 30.56 28.7469 30.525V35.9375C28.747 36.0689 28.6358 36.176 28.4991 36.176ZM29.6358 25.7594C31.2022 26.8108 30.7118 28.617 30.6882 28.6907C30.6865 28.6958 30.685 28.7012 30.6835 28.7065L29.3883 33.5677V25.7594H29.6358ZM32.2435 24.904C32.2435 25.0355 32.1323 25.1425 31.9956 25.1425L26.8039 25.1424C26.8393 24.9678 26.8583 24.7876 26.8583 24.6032C26.8583 24.4188 26.8392 24.2386 26.8039 24.064H31.9956C32.1323 24.064 32.2435 24.171 32.2435 24.3024V24.904Z" fill="#979797" stroke="#979797" stroke-width="0.779402"/>
<path d="M24.9227 19.6197L25.9171 20.2851C25.9721 20.322 26.0362 20.3404 26.1002 20.3404C26.1642 20.3404 26.2281 20.3221 26.2831 20.2853L27.2794 19.6199C27.3657 19.5622 27.4172 19.4675 27.4172 19.3665V18.119C27.4172 17.9486 27.2736 17.8105 27.0965 17.8105H25.1058C24.9287 17.8105 24.7852 17.9486 24.7852 18.119V19.3665C24.7852 19.4675 24.8365 19.562 24.9227 19.6197ZM25.4264 18.4274H26.7759V19.2053L26.1004 19.6564L25.4264 19.2054V18.4274Z" fill="#979797"/>
<path d="M24.8887 32.7314H22.9557C22.4654 32.7314 22.0664 33.1151 22.0664 33.5868V41.1337C22.0664 41.6053 22.4654 41.989 22.9557 41.989H23.8842C23.9085 41.9946 23.9334 41.9985 23.9595 41.9985C23.9855 41.9985 24.0105 41.9946 24.0347 41.989H24.8887C25.379 41.989 25.7778 41.6053 25.7778 41.1337V33.5868C25.7778 33.1151 25.3789 32.7314 24.8887 32.7314ZM25.1365 41.1337C25.1365 41.2652 25.0253 41.3722 24.8887 41.3722H24.2801V38.8174C24.2801 38.647 24.1365 38.509 23.9595 38.509C23.7824 38.509 23.6388 38.647 23.6388 38.8174V41.3722H22.9557C22.819 41.3722 22.7077 41.2651 22.7077 41.1337V33.5868C22.7077 33.4553 22.819 33.3483 22.9557 33.3483H24.8887C25.0253 33.3483 25.1365 33.4553 25.1365 33.5868V41.1337Z" fill="#979797" stroke="#979797" stroke-width="0.779402"/>
<path d="M24.3488 23.4248C24.2236 23.3044 24.0206 23.3044 23.8953 23.4248L22.4787 24.7875C22.3535 24.9079 22.3535 25.1032 22.4787 25.2236C22.5413 25.2839 22.6234 25.314 22.7054 25.314C22.7875 25.314 22.8695 25.2839 22.9321 25.2236L24.3487 23.861C24.474 23.7405 24.474 23.5452 24.3488 23.4248Z" fill="#979797"/>
<path d="M25.573 23.941C25.4477 23.8205 25.2448 23.8204 25.1195 23.941L23.7795 25.23C23.6542 25.3504 23.6542 25.5457 23.7795 25.6661C23.8421 25.7263 23.9241 25.7565 24.0062 25.7565C24.0882 25.7565 24.1703 25.7263 24.2329 25.6661L25.5729 24.3771C25.6983 24.2567 25.6983 24.0614 25.573 23.941Z" fill="#979797"/>
</g>
</svg>
