<svg width="38" height="31" viewBox="0 0 38 31" fill="none" xmlns="http://www.w3.org/2000/svg">
<rect x="0.90918" y="1.26855" width="29.7025" height="29.7025" fill="black"/>
<path d="M18.9126 26.7067L18.9126 26.7067L7.97801 15.8363C7.978 15.8363 7.97799 15.8363 7.97799 15.8363C7.5085 15.3696 7.48975 14.5981 7.93166 14.1074L7.93175 14.1073L11.4156 10.2406C11.87 9.73626 12.6435 9.71277 13.1258 10.1919L13.1259 10.192L19.099 16.1297C19.099 16.1297 19.099 16.1297 19.099 16.1297C19.188 16.2181 19.3119 16.2143 19.3959 16.1118L19.3959 16.1118L31.0653 1.87021C31.4944 1.34629 32.266 1.28148 32.7714 1.73877L36.6124 5.2112C37.1042 5.65565 37.156 6.42587 36.7377 6.93626L18.9126 26.7067ZM18.9126 26.7067C19.4022 27.1934 20.1765 27.1488 20.612 26.6172C20.612 26.6172 20.612 26.6172 20.612 26.6172L36.7376 6.93633L18.9126 26.7067Z" fill="white" stroke="black" stroke-width="0.948611"/>
</svg>
