<svg width="47" height="47" viewBox="0 0 47 47" fill="none" xmlns="http://www.w3.org/2000/svg">
<path d="M16.6988 3.77786H15.2303V3.0436C15.2303 1.82914 14.2419 0.84082 13.0275 0.84082H4.21626C3.00178 0.84082 2.01346 1.82914 2.01346 3.0436V3.77786H0.544922V8.18343H16.6988V3.77786ZM3.48199 3.0436C3.48199 2.63903 3.81167 2.30934 4.21626 2.30934H13.0275C13.432 2.30934 13.7617 2.63903 13.7617 3.0436V3.77786H3.48199V3.0436ZM15.2303 6.71491H2.01346V5.24639H15.2303V6.71491Z" fill="#979797"/>
<path d="M12.2936 29.4774C12.2936 29.882 11.9639 30.2117 11.5594 30.2117H5.68522C5.28064 30.2117 4.95096 29.882 4.95096 29.4774V9.65234H3.48242V29.4774C3.48242 30.6919 4.47074 31.6802 5.68522 31.6802H6.41949V36.0857H4.95096V41.9598H3.48242V46.3654H13.7622V41.9598H12.2936V36.0857H10.8251V31.6802H11.5594C12.7738 31.6802 13.7622 30.6919 13.7622 29.4774V9.65234H12.2936V29.4774ZM7.88802 31.6802H9.35656V36.0857H7.88802V31.6802ZM6.41949 37.5543H10.8251V41.9598H6.41949V37.5543ZM12.2936 43.4284V44.8969H4.95096V43.4284H12.2936Z" fill="#979797"/>
<path d="M8.62077 9.65234C7.40629 9.65234 6.41797 10.6407 6.41797 11.8551C6.41797 13.0696 7.40629 14.0579 8.62077 14.0579C9.83525 14.0579 10.8236 13.0696 10.8236 11.8551C10.8236 10.6407 9.83525 9.65234 8.62077 9.65234ZM8.62077 12.5894C8.21619 12.5894 7.8865 12.2597 7.8865 11.8551C7.8865 11.4505 8.21619 11.1209 8.62077 11.1209C9.02535 11.1209 9.35504 11.4505 9.35504 11.8551C9.35504 12.2597 9.02535 12.5894 8.62077 12.5894Z" fill="#979797"/>
<path d="M8.62077 16.9941C7.40629 16.9941 6.41797 17.9825 6.41797 19.1969C6.41797 20.4114 7.40629 21.3997 8.62077 21.3997C9.83525 21.3997 10.8236 20.4114 10.8236 19.1969C10.8236 17.9825 9.83525 16.9941 8.62077 16.9941ZM8.62077 19.9312C8.21619 19.9312 7.8865 19.6015 7.8865 19.1969C7.8865 18.7923 8.21619 18.4627 8.62077 18.4627C9.02535 18.4627 9.35504 18.7923 9.35504 19.1969C9.35504 19.6015 9.02535 19.9312 8.62077 19.9312Z" fill="#979797"/>
<path d="M8.62077 24.3369C7.40629 24.3369 6.41797 25.3252 6.41797 26.5397C6.41797 27.7542 7.40629 28.7425 8.62077 28.7425C9.83525 28.7425 10.8236 27.7542 10.8236 26.5397C10.8236 25.3252 9.83525 24.3369 8.62077 24.3369ZM8.62077 27.274C8.21619 27.274 7.8865 26.9443 7.8865 26.5397C7.8865 26.1351 8.21619 25.8054 8.62077 25.8054C9.02535 25.8054 9.35504 26.1351 9.35504 26.5397C9.35504 26.9443 9.02535 27.274 8.62077 27.274Z" fill="#979797"/>
<path d="M43.8669 36.8193H17.4333C16.2188 36.8193 15.2305 37.8077 15.2305 39.0221C15.2305 40.2366 16.2188 41.2249 17.4333 41.2249V44.162C17.4333 45.3764 18.4216 46.3647 19.6361 46.3647H21.1046C22.3191 46.3647 23.3074 45.3764 23.3074 44.162V41.2249H37.9927V44.162C37.9927 45.3764 38.9811 46.3647 40.1955 46.3647H41.6641C42.8786 46.3647 43.8669 45.3764 43.8669 44.162V41.2249C45.0814 41.2249 46.0697 40.2366 46.0697 39.0221C46.0697 37.8077 45.0814 36.8193 43.8669 36.8193ZM21.8389 44.162C21.8389 44.5665 21.5092 44.8962 21.1046 44.8962H19.6361C19.2315 44.8962 18.9018 44.5665 18.9018 44.162V41.2249H21.8389V44.162ZM42.3983 44.162C42.3983 44.5665 42.0687 44.8962 41.6641 44.8962H40.1955C39.791 44.8962 39.4613 44.5665 39.4613 44.162V41.2249H42.3983V44.162ZM43.8669 39.7564H17.4333C17.0287 39.7564 16.699 39.4267 16.699 39.0221C16.699 38.6175 17.0287 38.2879 17.4333 38.2879H43.8669C44.2715 38.2879 44.6011 38.6175 44.6011 39.0221C44.6011 39.4267 44.2715 39.7564 43.8669 39.7564Z" fill="#979797"/>
<path d="M24.0423 32.4142C24.0423 31.1997 23.054 30.2114 21.8395 30.2114C20.625 30.2114 19.6367 31.1997 19.6367 32.4142C19.6367 33.6287 20.625 34.617 21.8395 34.617C23.054 34.617 24.0423 33.6287 24.0423 32.4142ZM21.1053 32.4142C21.1053 32.0096 21.4349 31.6799 21.8395 31.6799C22.2441 31.6799 22.5738 32.0096 22.5738 32.4142C22.5738 32.8188 22.2441 33.1485 21.8395 33.1485C21.4349 33.1485 21.1053 32.8188 21.1053 32.4142Z" fill="#979797"/>
<path d="M41.6634 32.4142C41.6634 31.1997 40.6751 30.2114 39.4606 30.2114C38.2461 30.2114 37.2578 31.1997 37.2578 32.4142C37.2578 33.6287 38.2461 34.617 39.4606 34.617C40.6751 34.617 41.6634 33.6287 41.6634 32.4142ZM38.7263 32.4142C38.7263 32.0096 39.056 31.6799 39.4606 31.6799C39.8652 31.6799 40.1949 32.0096 40.1949 32.4142C40.1949 32.8188 39.8652 33.1485 39.4606 33.1485C39.056 33.1485 38.7263 32.8188 38.7263 32.4142Z" fill="#979797"/>
<path d="M44.6011 23.6032H40.9401L40.3901 20.3042C40.2124 19.2373 39.2983 18.4634 38.2174 18.4634H23.0827C22.0011 18.4634 21.0877 19.2373 20.91 20.3042L20.3601 23.6032H16.699C15.8891 23.6032 15.2305 24.2618 15.2305 25.0717V26.5403C15.2305 27.3501 15.8891 28.0088 16.699 28.0088H18.1675V26.5403H16.699V25.0717H20.1155L19.7014 27.5557C18.3717 28.1086 17.4333 29.4186 17.4333 30.9458V35.3514H18.9018V30.9458C18.9018 29.7313 19.8901 28.743 21.1046 28.743H23.5123L25.7151 35.3514H35.5843L37.7871 28.743H40.1955C41.41 28.743 42.3983 29.7313 42.3983 30.9458V35.3514H43.8669V30.9458C43.8669 29.4186 42.9285 28.1086 41.5987 27.5557L41.1846 25.0717H44.6011V26.5403H43.1326V28.0088H44.6011C45.411 28.0088 46.0697 27.3501 46.0697 26.5403V25.0717C46.0697 24.2618 45.411 23.6032 44.6011 23.6032ZM34.5263 33.8829H26.7739L25.0608 28.743H36.24L34.5263 33.8829ZM24.2142 27.2745L24.9485 22.8689H36.3502L37.0845 27.2745H24.2142ZM38.575 27.2745L37.5955 21.4004H23.7054L22.7259 27.2745H21.2368L22.3587 20.5457C22.4182 20.1904 22.7229 19.9319 23.0827 19.9319H38.2167C38.5772 19.9319 38.8819 20.1904 38.9407 20.5457L40.0634 27.2745H38.575Z" fill="#979797"/>
<path d="M19.6345 19.9312H20.3688V18.4627H19.6345V16.9942H41.6626V18.4627H40.9283V19.9312H41.6626C42.4724 19.9312 43.1311 19.2726 43.1311 18.4627V16.9942C43.1311 16.1843 42.4724 15.5257 41.6626 15.5257H37.9912V14.0571H36.5227V15.5257H24.7744V14.0571H23.3059V15.5257H19.6345C18.8247 15.5257 18.166 16.1843 18.166 16.9942V18.4627C18.166 19.2726 18.8247 19.9312 19.6345 19.9312Z" fill="#979797"/>
</svg>
