<svg width="24" height="24" viewBox="0 0 24 24" fill="none" xmlns="http://www.w3.org/2000/svg">
<path d="M17.347 8.152H16.3984V6.25477C16.3984 3.63661 14.2735 1.51172 11.6553 1.51172C9.03713 1.51172 6.91224 3.63661 6.91224 6.25477V8.152H5.96363C4.92016 8.152 4.06641 9.00575 4.06641 10.0492V19.5353C4.06641 20.5788 4.92016 21.4326 5.96363 21.4326H17.347C18.3904 21.4326 19.2442 20.5788 19.2442 19.5353V10.0492C19.2442 9.00575 18.3904 8.152 17.347 8.152ZM8.80946 6.25477C8.80946 4.68008 10.0806 3.40894 11.6553 3.40894C13.23 3.40894 14.5011 4.68008 14.5011 6.25477V8.152H8.80946V6.25477ZM17.347 19.5353H5.96363V10.0492H17.347V19.5353ZM11.6553 16.6895C12.6988 16.6895 13.5525 15.8357 13.5525 14.7923C13.5525 13.7488 12.6988 12.8951 11.6553 12.8951C10.6118 12.8951 9.75807 13.7488 9.75807 14.7923C9.75807 15.8357 10.6118 16.6895 11.6553 16.6895Z" fill="current"/>
</svg>
