<svg width="24" height="24" viewBox="0 0 24 24" fill="none" xmlns="http://www.w3.org/2000/svg">
<path d="M11.6446 2.64258C6.40826 2.64258 2.16797 6.89236 2.16797 12.1287C2.16797 17.365 6.40826 21.6148 11.6446 21.6148C16.8904 21.6148 21.1402 17.365 21.1402 12.1287C21.1402 6.89236 16.8904 2.64258 11.6446 2.64258ZM18.2185 8.33424H15.4201C15.1165 7.14848 14.6802 6.01015 14.111 4.95719C15.8564 5.55481 17.3078 6.76904 18.2185 8.33424ZM11.6541 4.57774C12.4414 5.71608 13.058 6.97773 13.4659 8.33424H9.84223C10.2501 6.97773 10.8667 5.71608 11.6541 4.57774ZM4.31183 14.0259C4.16005 13.4188 4.06519 12.7832 4.06519 12.1287C4.06519 11.4741 4.16005 10.8386 4.31183 10.2315H7.51814C7.44225 10.8576 7.38533 11.4836 7.38533 12.1287C7.38533 12.7737 7.44225 13.3998 7.51814 14.0259H4.31183ZM5.08969 15.9231H7.88809C8.19165 17.1089 8.62801 18.2472 9.19718 19.3002C7.45173 18.7026 6.00036 17.4978 5.08969 15.9231ZM7.88809 8.33424H5.08969C6.00036 6.75955 7.45173 5.55481 9.19718 4.95719C8.62801 6.01015 8.19165 7.14848 7.88809 8.33424ZM11.6541 19.6796C10.8667 18.5413 10.2501 17.2796 9.84223 15.9231H13.4659C13.058 17.2796 12.4414 18.5413 11.6541 19.6796ZM13.8738 14.0259H9.43433C9.34896 13.3998 9.28255 12.7737 9.28255 12.1287C9.28255 11.4836 9.34896 10.8481 9.43433 10.2315H13.8738C13.9592 10.8481 14.0256 11.4836 14.0256 12.1287C14.0256 12.7737 13.9592 13.3998 13.8738 14.0259ZM14.111 19.3002C14.6802 18.2472 15.1165 17.1089 15.4201 15.9231H18.2185C17.3078 17.4883 15.8564 18.7026 14.111 19.3002ZM15.79 14.0259C15.8659 13.3998 15.9228 12.7737 15.9228 12.1287C15.9228 11.4836 15.8659 10.8576 15.79 10.2315H18.9963C19.1481 10.8386 19.243 11.4741 19.243 12.1287C19.243 12.7832 19.1481 13.4188 18.9963 14.0259H15.79Z" fill="current"/>
</svg>
