<svg width="22" height="22" viewBox="0 0 22 22" fill="none" xmlns="http://www.w3.org/2000/svg">
<path d="M19.6646 14.8395V4.34387C19.6646 3.30039 18.8125 2.52649 17.7777 2.61344H17.7255C15.8994 2.76996 13.1256 3.70039 11.5777 4.6743L11.4299 4.76995C11.1777 4.92647 10.7603 4.92647 10.5082 4.76995L10.2908 4.63952C8.74297 3.6743 5.97776 2.75257 4.15169 2.60475C3.11691 2.51779 2.27344 3.30039 2.27344 4.33517V14.8395C2.27344 15.6742 2.95169 16.4568 3.78647 16.5612L4.03865 16.596C5.92559 16.8481 8.83862 17.8047 10.5082 18.7177L10.543 18.7351C10.7777 18.8655 11.1516 18.8655 11.3777 18.7351C13.0473 17.8134 15.969 16.8481 17.8647 16.596L18.1516 16.5612C18.9864 16.4568 19.6646 15.6742 19.6646 14.8395Z" stroke="current" stroke-width="1.42292" stroke-linecap="round" stroke-linejoin="round"/>
<path d="M10.9688 5.05713V18.1005" stroke="current" stroke-width="1.42292" stroke-linecap="round" stroke-linejoin="round"/>
<path d="M7.27096 7.66602H5.31445" stroke="current" stroke-width="1.42292" stroke-linecap="round" stroke-linejoin="round"/>
<path d="M7.92313 10.2744H5.31445" stroke="current" stroke-width="1.42292" stroke-linecap="round" stroke-linejoin="round"/>
</svg>
