<svg width="45" height="45" viewBox="0 0 45 45" fill="none" xmlns="http://www.w3.org/2000/svg">
<path d="M42.713 29.8568C42.0336 29.348 41.236 28.9909 40.4027 28.824L38.3342 28.4102L38.1027 27.4827C38.9105 26.9006 39.5093 26.0492 39.7706 25.0606L40.1393 24.7094C40.8832 24.001 41.4486 23.1111 41.7731 22.1371C41.9879 21.494 42.0968 20.8227 42.0968 20.1426C42.0968 18.6968 41.5444 17.3816 40.6452 16.3836V15.9677C40.6452 14.0995 39.4606 12.5071 37.8044 11.8902C38.3233 11.406 38.7232 10.7978 38.9577 10.1119C40.7257 9.86952 42.0968 8.36565 42.0968 6.53226C42.0968 4.53121 40.4688 2.90323 38.4677 2.90323C37.2818 2.90323 36.1996 3.47226 35.5239 4.41435C35.3003 4.37879 35.0724 4.35484 34.8387 4.35484C32.437 4.35484 30.4839 6.30798 30.4839 8.70968C30.4839 9.9646 31.0202 11.0932 31.8716 11.8887C30.9019 12.2473 30.0985 12.9411 29.5962 13.839C29.221 13.3113 28.7869 12.8294 28.3065 12.3975V11.6129C28.3065 9.74468 27.1219 8.15226 25.4656 7.53532C26.3177 6.73984 26.8548 5.60976 26.8548 4.35484C26.8548 1.95315 24.9017 0 22.5 0C20.0983 0 18.1452 1.95315 18.1452 4.35484C18.1452 5.60976 18.6823 6.73984 19.5344 7.53532C17.8781 8.15226 16.6935 9.74468 16.6935 11.6129V12.3975C16.2131 12.8294 15.779 13.3106 15.4038 13.8382C14.9008 12.9411 14.0981 12.2465 13.1277 11.888C13.9798 11.0932 14.5161 9.9646 14.5161 8.70968C14.5161 6.30798 12.563 4.35484 10.1613 4.35484C7.7596 4.35484 5.80645 6.30798 5.80645 8.70968C5.80645 9.9646 6.34355 11.094 7.19565 11.8894C5.985 12.3416 5.02186 13.3236 4.59726 14.5742C3.62903 14.7956 2.90323 15.6593 2.90323 16.6935V20.1426C2.90323 20.8227 3.0121 21.494 3.22694 22.1364C3.55137 23.1111 4.11677 24.001 4.86 24.7086L5.22944 25.0606C5.49073 26.0492 6.08952 26.8998 6.89734 27.4827L6.66581 28.4102L4.59726 28.824C3.76476 28.9902 2.96637 29.348 2.28774 29.8568C0.855726 30.931 0 32.6417 0 34.4315V45H45V34.4315C45 32.6417 44.1443 30.931 42.713 29.8568V29.8568ZM13.6415 25.0614L13.7903 24.9191V28.5627C13.725 28.6048 13.6575 28.644 13.5936 28.6882L12.2052 28.411L11.9736 27.4834C12.7815 26.9006 13.3802 26.0499 13.6415 25.0614V25.0614ZM11.7653 29.8031L12.2226 29.8945C11.9823 30.1594 11.7602 30.4389 11.5585 30.7343L10.8791 30.3946L11.7653 29.8031ZM9.23298 32.6613L8.87153 31.5777L9.43548 31.2953L10.8515 32.003C10.7565 32.2178 10.6708 32.437 10.5946 32.6606H9.23298V32.6613ZM7.56 32.2331L7.92581 33.3312L7.71823 33.7464L7.0425 32.4915L7.56 32.2331ZM9.15823 34.1129H10.2491C10.1961 34.4881 10.1613 34.8692 10.1613 35.259V35.5885L9.43548 36.9363L8.56016 35.3098L9.15823 34.1129ZM10.1613 38.6506L10.3115 38.3719C10.5467 38.856 11.0395 39.1935 11.6129 39.1935V43.5484H10.1613V38.6506ZM13.0645 39.1935H14.826C14.9175 39.5332 15.0213 39.87 15.1534 40.2002L15.9677 42.2361V43.5484H13.0645V39.1935ZM16.5012 39.661C16.147 38.7769 15.9677 37.8457 15.9677 36.892C15.9677 36.0893 16.0969 35.296 16.3495 34.5346L16.6558 33.6165L15.2797 33.157L14.9727 34.0752C14.67 34.9861 14.5161 35.9332 14.5161 36.892C14.5161 37.1773 14.5299 37.4603 14.5568 37.7419H11.6129V35.259C11.6129 32.0117 13.9427 29.2965 17.1523 28.8022L17.2452 28.7877L21.7742 37.199V43.5484H17.4194V41.9574L16.5012 39.661ZM22.5 16.4279C23.511 17.5652 24.8567 18.3411 26.3751 18.6445L26.8548 18.7403V21.2001C26.8548 23.5176 24.9692 25.4032 22.6524 25.4032H22.5247C20.1099 25.4032 18.1452 23.4494 18.1452 21.0469V18.7403L18.6249 18.6445C20.1433 18.3411 21.489 17.5652 22.5 16.4279ZM20.8967 26.6204C21.4142 26.7699 21.9593 26.8548 22.5247 26.8548H22.6524C23.1583 26.8548 23.646 26.7815 24.1135 26.6567C24.435 27.6002 25.2261 28.3202 26.2401 28.5394L24.8023 31.2097H20.1977L18.7599 28.5394C19.7869 28.3173 20.5839 27.5814 20.8967 26.6204V26.6204ZM22.5 35.4854L20.9794 32.6613H24.0206L22.5 35.4854ZM23.2258 37.1998L27.7556 28.7884L27.8485 28.8029C31.0573 29.2965 33.3871 32.0117 33.3871 35.259V37.7419H30.444C30.4701 37.4603 30.4839 37.1773 30.4839 36.892C30.4839 35.9332 30.33 34.9861 30.0266 34.0752L29.7203 33.157L28.3442 33.6165L28.6498 34.5339C28.9031 35.296 29.0323 36.0893 29.0323 36.892C29.0323 37.845 28.853 38.7769 28.4988 39.661L27.5806 41.9574V43.5484H23.2258V37.1998ZM31.2097 24.9191L31.3585 25.0606C31.6198 26.0492 32.2185 26.8998 33.0264 27.4827L32.7948 28.4102L31.4064 28.6875C31.3425 28.6432 31.275 28.604 31.2097 28.5619V24.9191ZM35.767 32.6613H34.4054C34.3292 32.437 34.2435 32.2178 34.1485 32.0037L35.5645 31.2953L36.1285 31.5777L35.767 32.6613ZM33.4415 30.7336C33.239 30.4381 33.0169 30.1587 32.7774 29.8938L33.2347 29.8023L34.1216 30.3931L33.4415 30.7336ZM29.0323 42.2361L29.8466 40.2002C29.9787 39.8707 30.0832 39.5332 30.174 39.1935H31.9355V43.5484H29.0323V42.2361ZM33.3871 39.1935C33.9605 39.1935 34.4533 38.856 34.6885 38.3719L34.8387 38.6506V43.5484H33.3871V39.1935ZM35.5645 36.9363L34.8387 35.5885V35.259C34.8387 34.8692 34.8039 34.4881 34.7502 34.1129H35.841L36.4398 35.3105L35.5645 36.9363ZM37.2818 33.7471L37.0742 33.3319L37.44 32.2338L37.9575 32.4929L37.2818 33.7471ZM39.2589 30.076L38.6463 31.2133L37.0081 30.3939L37.8951 29.8031L39.2589 30.076ZM36.9138 28.7122L35.5645 29.6115L34.2152 28.7115L34.3597 28.133C34.7429 28.244 35.1465 28.3065 35.5645 28.3065C35.9826 28.3065 36.3861 28.244 36.7694 28.133L36.9138 28.7122ZM38.4677 23.9516C38.4677 25.5527 37.1656 26.8548 35.5645 26.8548C33.9634 26.8548 32.6613 25.5527 32.6613 23.9516V22.5893C32.6613 21.5884 33.3399 20.7196 34.311 20.4772L34.3706 20.4619C34.8474 20.9279 35.4694 21.2494 36.1655 21.3489L37.8443 21.5891C38.1999 21.6392 38.4677 21.9484 38.4677 22.3069V23.9516ZM40.3962 21.6784C40.2779 22.0326 40.1153 22.3715 39.9194 22.6887V22.3069C39.9194 21.2306 39.1159 20.3037 38.0504 20.152L36.3716 19.9118C35.497 19.7869 34.8387 19.0277 34.8387 18.1452H33.3871C33.3871 18.5088 33.4488 18.8615 33.5627 19.1918C32.159 19.7173 31.2097 21.0607 31.2097 22.5893V18.871C31.2097 18.5407 31.1872 18.2156 31.1509 17.894C31.9166 16.7037 33.2369 15.9677 34.6587 15.9677H36.4703C38.7726 15.9677 40.6452 17.841 40.6452 20.1426C40.6452 20.6666 40.5617 21.1827 40.3962 21.6784V21.6784ZM36.2903 13.0645C36.2903 13.8651 35.6393 14.5161 34.8387 14.5161C34.0381 14.5161 33.3871 13.8651 33.3871 13.0645H36.2903ZM39.0629 15.1541C38.5207 14.871 37.9277 14.678 37.3006 14.5844C37.5111 14.2447 37.6476 13.86 37.7027 13.447C38.356 13.815 38.8473 14.4218 39.0629 15.1541V15.1541ZM34.8387 11.6129C33.2376 11.6129 31.9355 10.3108 31.9355 8.70968H37.7419C37.7419 10.3108 36.4398 11.6129 34.8387 11.6129ZM38.4677 4.35484C39.6682 4.35484 40.6452 5.33177 40.6452 6.53226C40.6452 7.47073 40.0449 8.26476 39.1863 8.5696C39.1362 7.01274 38.2681 5.66129 36.9958 4.93186C37.3906 4.56823 37.9089 4.35484 38.4677 4.35484V4.35484ZM34.8387 5.80645C35.9085 5.80645 36.8347 6.39436 37.3384 7.25806H32.3398C32.8427 6.39436 33.7689 5.80645 34.8387 5.80645ZM31.9732 13.439C32.0458 13.995 32.2737 14.498 32.6156 14.9095C31.9231 15.181 31.2888 15.5852 30.751 16.1035C30.6827 15.9002 30.6131 15.6985 30.5303 15.5025C30.6762 14.6047 31.2191 13.86 31.9732 13.439V13.439ZM26.8251 11.3219C26.1915 10.9575 25.5077 10.673 24.787 10.4763C25.0926 10.0815 25.2951 9.6104 25.364 9.09218C26.1675 9.54508 26.7278 10.3616 26.8251 11.3219ZM21.0484 8.70968H23.9516C23.9516 9.51024 23.3006 10.1613 22.5 10.1613C21.6994 10.1613 21.0484 9.51024 21.0484 8.70968V8.70968ZM22.5 7.25806C20.8989 7.25806 19.5968 5.95597 19.5968 4.35484H25.4032C25.4032 5.95597 24.1011 7.25806 22.5 7.25806V7.25806ZM22.5 1.45161C23.5698 1.45161 24.496 2.03952 24.9997 2.90323H20.001C20.504 2.03952 21.4302 1.45161 22.5 1.45161ZM19.6352 9.09218C19.7042 9.6104 19.9067 10.0815 20.2123 10.4763C19.4915 10.673 18.8078 10.9575 18.1742 11.3219C18.2722 10.3616 18.8318 9.54508 19.6352 9.09218V9.09218ZM22.5 11.6129C26.5021 11.6129 29.7581 14.8689 29.7581 18.871V27.8252C29.2224 27.6184 28.6599 27.4587 28.0691 27.368L26.6342 27.1473C26.055 27.0581 25.6094 26.6407 25.4606 26.1007C27.1582 25.1238 28.3057 23.2948 28.3057 21.2001V17.55L26.6589 17.2205C25.261 16.941 24.0525 16.1543 23.2251 15.0039V13.0645H21.7735V15.0039C20.9453 16.1543 19.7369 16.941 18.3397 17.2205L16.6935 17.55V21.0469C16.6935 23.1692 17.8461 25.0236 19.5569 26.0369C19.4277 26.6081 18.9682 27.0544 18.3658 27.1473L16.9309 27.368C16.3401 27.4587 15.7776 27.6184 15.2419 27.8252V18.871C15.2419 14.8689 18.4979 11.6129 22.5 11.6129V11.6129ZM14.469 15.5025C14.4174 15.6244 14.3782 15.7515 14.3318 15.8756C13.7998 15.3849 13.1698 15.0155 12.4846 14.7869C12.7727 14.3993 12.9607 13.9398 13.026 13.4383C13.7809 13.8593 14.3245 14.6047 14.469 15.5025V15.5025ZM8.70968 13.0645H11.6129C11.6129 13.8651 10.9619 14.5161 10.1613 14.5161C9.36073 14.5161 8.70968 13.8651 8.70968 13.0645ZM10.1613 11.6129C8.56016 11.6129 7.25806 10.3108 7.25806 8.70968H13.0645C13.0645 10.3108 11.7624 11.6129 10.1613 11.6129ZM10.1613 5.80645C11.2311 5.80645 12.1573 6.39436 12.661 7.25806H7.66234C8.16532 6.39436 9.09145 5.80645 10.1613 5.80645V5.80645ZM7.29581 13.4361C7.34661 13.8266 7.47218 14.1902 7.66234 14.5161H6.20056C6.46403 14.0632 6.84218 13.6894 7.29581 13.4361V13.4361ZM4.60379 21.6777C4.43831 21.1827 4.35484 20.6666 4.35484 20.1426V16.6935C4.35484 16.2936 4.68 15.9677 5.08065 15.9677H10.8871C12.0963 15.9677 13.2249 16.584 13.8963 17.5819C13.8339 18.0036 13.7903 18.4319 13.7903 18.871V22.5893C13.7903 21.0607 12.841 19.7165 11.4373 19.1918C11.5512 18.8615 11.6129 18.5088 11.6129 18.1452H10.1613C10.1613 19.0277 9.50298 19.7869 8.62911 19.9125L6.95032 20.1527C5.88411 20.3044 5.08065 21.2306 5.08065 22.3069V22.6887C4.88468 22.3708 4.7221 22.0326 4.60379 21.6777V21.6777ZM6.53226 22.3069C6.53226 21.9484 6.80008 21.6392 7.155 21.5884L8.83379 21.3481C9.52984 21.2487 10.1511 20.9265 10.6287 20.4612L10.689 20.4765C11.6601 20.7196 12.3387 21.5884 12.3387 22.5893V23.9516C12.3387 25.5527 11.0366 26.8548 9.43548 26.8548C7.83436 26.8548 6.53226 25.5527 6.53226 23.9516V22.3069ZM9.43548 28.3065C9.85355 28.3065 10.2571 28.244 10.6403 28.133L10.7848 28.7115L9.43548 29.6115L8.08621 28.7115L8.23065 28.133C8.61387 28.244 9.01742 28.3065 9.43548 28.3065ZM7.10565 29.8031L7.99258 30.3939L6.35444 31.2133L5.74113 30.076L7.10565 29.8031ZM1.45161 34.4315C1.45161 33.0953 2.0896 31.8194 3.15944 31.0173C3.49839 30.7633 3.87871 30.5652 4.27863 30.4215L8.70968 38.6514V43.5484H4.35484V35.5645H2.90323V43.5484H1.45161V34.4315ZM43.5484 43.5484H42.0968V35.5645H40.6452V43.5484H36.2903V38.6514L40.7214 30.4222C41.1213 30.5659 41.5023 30.764 41.8413 31.0181C42.9104 31.8194 43.5484 33.096 43.5484 34.4315V43.5484Z" fill="#979797"/>
<path d="M22.5001 23.9528C23.6723 23.9528 24.7262 23.3017 25.2502 22.2529L25.3264 22.0998L24.0279 21.4502L23.9517 21.6041C23.6752 22.1571 23.1192 22.5012 22.5001 22.5012C21.881 22.5012 21.325 22.1571 21.0485 21.6041L20.9723 21.4509L19.6738 22.1005L19.75 22.2529C20.2741 23.3017 21.3279 23.9528 22.5001 23.9528Z" fill="#979797"/>
</svg>
