<svg width="31" height="32" viewBox="0 0 31 32" fill="none" xmlns="http://www.w3.org/2000/svg">
<path d="M20.9909 12.2304H18.9791V5.90396C18.9791 5.20805 18.4097 4.63867 17.7138 4.63867H12.6526C11.9567 4.63867 11.3873 5.20805 11.3873 5.90396V12.2304H9.37553C8.24942 12.2304 7.68003 13.5969 8.47717 14.3941L14.2849 20.2018C14.7783 20.6952 15.5755 20.6952 16.0689 20.2018L21.8766 14.3941C22.6738 13.5969 22.117 12.2304 20.9909 12.2304ZM6.32617 24.8834C6.32617 25.5793 6.89555 26.1486 7.59146 26.1486H22.775C23.4709 26.1486 24.0403 25.5793 24.0403 24.8834C24.0403 24.1874 23.4709 23.6181 22.775 23.6181H7.59146C6.89555 23.6181 6.32617 24.1874 6.32617 24.8834Z" fill="white"/>
</svg>
