<svg width="28" height="28" viewBox="0 0 28 28" fill="none" xmlns="http://www.w3.org/2000/svg">
<path d="M21.4853 12.9932H5.99767C4.77573 12.9932 3.78516 13.9837 3.78516 15.2057V22.9495C3.78516 24.1714 4.77573 25.162 5.99767 25.162H21.4853C22.7072 25.162 23.6978 24.1714 23.6978 22.9495V15.2057C23.6978 13.9837 22.7072 12.9932 21.4853 12.9932Z" stroke="white" stroke-width="2.04232" stroke-linecap="round" stroke-linejoin="round"/>
<path d="M8.21094 12.9934V8.5684C8.21094 7.10141 8.7937 5.69451 9.83102 4.65719C10.8683 3.61987 12.2752 3.03711 13.7422 3.03711C15.2092 3.03711 16.6161 3.61987 17.6534 4.65719C18.6908 5.69451 19.2735 7.10141 19.2735 8.5684V12.9934" stroke="white" stroke-width="2.04232" stroke-linecap="round" stroke-linejoin="round"/>
</svg>
