<svg width="83" height="50" viewBox="0 0 83 50" fill="none" xmlns="http://www.w3.org/2000/svg">
<path d="M82.947 38.198C82.7034 35.5853 82.3439 32.9725 82.0424 30.3725C81.938 29.4587 81.7524 28.5577 81.7292 27.6439C81.6944 26.138 81.3233 24.6836 81.2073 23.1906C81.1494 22.4312 81.0914 21.6589 80.987 20.8867C80.929 20.3976 80.7434 20.1531 80.2563 20.2432C79.4445 20.3976 78.6211 20.5006 77.7976 20.6679L77.0206 20.8352L76.661 18.9947H76.6726C76.6494 18.9046 76.6378 18.8016 76.6146 18.7115C76.5103 18.2095 76.2667 18.1581 75.8956 18.2868C75.0605 18.5957 74.2255 18.9174 73.3789 19.2006C73.1121 19.2907 72.8802 19.3937 72.9266 19.7412C72.973 20.1144 73.2165 20.2946 73.5528 20.256C73.9704 20.2045 74.3879 20.1144 74.817 20.0501C75.1417 19.9986 75.4897 20.0372 75.5476 20.462C75.6172 20.9768 75.8028 21.453 75.8724 21.955C76.058 23.3064 76.4407 24.6064 76.6842 25.945C76.893 27.0776 77.1597 28.1974 77.3685 29.3171C77.6932 31.0933 78.1107 32.8438 78.4471 34.6071C78.5978 35.4179 78.563 35.5853 77.8324 35.7397C76.3943 36.0357 73.5412 37.5159 73.4601 37.606C73.3325 37.6832 73.1933 37.7476 73.0657 37.8248C73.1469 37.9921 73.2397 38.005 73.3325 37.9792C73.5065 37.9278 73.8544 37.8248 73.8544 37.8248C73.9008 37.8119 73.9356 37.8119 73.9704 37.799C75.8724 37.2199 77.8324 37.0525 79.7924 36.8595C80.4999 36.7822 80.5347 36.7436 80.3607 35.9714C79.9664 34.2338 79.6068 32.4834 79.2241 30.7329C78.8646 29.0983 78.4819 27.4637 78.1223 25.8291C77.8904 24.7737 77.1829 21.7748 77.1829 21.7748L79.5025 21.7233L79.6532 22.7272L79.746 23.3322C79.746 23.345 79.746 23.3579 79.746 23.3708C79.804 23.9628 79.8272 24.5549 79.92 25.1341C80.2563 27.1934 80.3607 29.2914 80.6854 31.3636C80.9406 32.9853 81.0334 34.6328 81.2885 36.2545C81.5089 37.6317 81.4045 37.7733 80.1751 37.7733C79.0733 37.7733 76.9394 38.2753 76.9394 38.2753C76.8698 38.2881 76.8002 38.301 76.7306 38.301C76.7538 38.4941 76.835 38.5327 76.9394 38.5456C77.1249 38.5713 77.2989 38.597 77.4845 38.6228C77.4845 38.6228 80.6854 38.8802 82.2975 38.9703C82.9702 39.0089 83.0166 38.9574 82.947 38.198Z" fill="white"/>
<path d="M77.6237 34.0536C77.4498 33.5774 77.2642 33.1141 77.0902 32.6378C76.5335 31.1191 75.9884 29.6003 75.4202 28.0815C74.7823 26.3697 74.1328 24.6708 73.4949 22.9589C72.915 21.3758 72.37 19.7927 71.7785 18.2096C71.4653 17.3858 71.303 17.3343 70.5375 17.7076C69.6561 18.1452 68.8094 18.6343 67.986 19.2135C66.8494 20.0115 65.8288 20.9768 64.9126 22.058C65.0982 21.955 65.2953 21.852 65.4693 21.7362C66.919 20.8095 68.3687 19.9214 70.0156 19.4838C70.5259 19.3422 70.7811 19.561 70.9434 19.96C71.2914 20.8095 71.5813 21.6976 71.8829 22.5728C72.6715 24.8381 73.4485 27.1034 74.2372 29.3686C74.7127 30.7458 75.1882 32.1101 75.6637 33.4873C75.7913 33.8606 75.7449 34.0536 75.3738 34.2081C74.5619 34.5556 73.8081 35.0061 73.0542 35.508C72.2424 36.0358 71.4537 36.6021 70.6883 37.207C70.4911 37.3615 70.3056 37.5159 70.1084 37.6832C70.2128 37.8377 70.3056 37.8248 70.3983 37.7862C70.5607 37.709 70.7347 37.6317 70.9086 37.5545C72.9498 36.6021 75.0258 35.7397 77.1714 35.0833C77.7397 34.916 77.8325 34.6328 77.6237 34.0536Z" fill="white"/>
<path d="M65.9332 24.8252C67.2089 24.143 68.3803 23.2292 69.7256 22.7143C68.2179 22.8559 66.9654 23.5896 65.9332 24.8252Z" fill="white"/>
<path d="M71.4189 29.1755C71.3609 28.9567 71.1638 28.9954 71.0246 29.0468C69.9692 29.4201 69.0646 30.0379 68.2411 30.9517C68.3687 30.9903 68.4383 31.0289 68.4731 31.0161C69.3197 30.3597 70.2127 29.7933 71.1985 29.433C71.3029 29.3815 71.4537 29.33 71.4189 29.1755Z" fill="white"/>
<path d="M72.4743 32.123C71.3493 32.3547 70.4447 33.0626 69.5865 33.8477C69.5169 33.912 69.5053 34.0021 69.5633 34.0665C69.6213 34.1308 69.7025 34.118 69.7721 34.0665C70.6999 33.3328 71.7205 32.7923 72.7411 32.1745C72.6599 32.1487 72.5671 32.1101 72.4743 32.123Z" fill="white"/>
<path d="M70.1084 26.048C70.0272 25.842 69.7952 25.945 69.6445 26.0222C68.8326 26.3955 68.0904 26.8846 67.4061 27.6053C67.6381 27.7212 67.7541 27.6053 67.8932 27.5281C68.5195 27.142 69.1574 26.7559 69.7952 26.3697C69.9228 26.3054 70.2128 26.3311 70.1084 26.048Z" fill="white"/>
<path d="M15.718 38.0603C14.6473 37.3116 13.4007 36.9535 12.1688 36.6443C10.5555 36.2374 8.92752 35.9119 7.35824 35.3259C6.40494 34.9841 5.87695 34.3331 5.89162 33.5518C5.89162 32.7054 6.90359 30.9313 7.5049 30.7197C7.6369 30.6709 7.79823 30.6709 7.93022 30.6872C9.30885 30.8988 10.6728 30.736 11.9928 30.3617C13.2834 30.0036 14.4567 29.3525 15.2047 28.0179C15.322 27.8226 15.5566 27.6598 15.41 27.3831C15.2633 27.139 15.014 27.2041 14.8087 27.2203C13.7527 27.2366 12.6967 27.3017 11.7288 26.7158C10.5848 26.0322 9.41151 25.902 8.12088 26.2438C6.4196 26.6995 4.82099 27.5784 3.03171 27.611C2.65039 27.611 2.63573 27.9528 2.87039 28.2457C3.00239 28.4085 3.16371 28.5224 3.31037 28.6527C4.30767 29.4827 4.30767 29.4827 3.70636 30.6872C3.67703 30.736 3.63303 30.7686 3.61836 30.8174C2.79705 32.8845 2.69439 34.7237 4.74765 36.3839C5.78896 37.2139 6.97692 37.7022 8.19421 38.044C10.0128 38.5486 11.8608 38.9067 13.6794 39.4275C15.5126 39.9483 16.1873 40.9575 15.014 42.9757C13.0341 46.3937 7.73956 48.7863 3.88235 47.2238C2.82639 46.8006 2.63573 46.4426 2.79706 45.2056C2.95838 44.0174 3.58903 43.0897 4.13168 42.0968C4.71833 40.99 5.5983 40.1111 6.14095 38.7765C5.90629 38.8741 5.83295 38.8741 5.77429 38.9229C3.97035 40.6482 2.41573 42.5851 1.62376 45.1405C1.22777 46.3937 1.62376 47.6307 2.57706 48.4608C3.5157 49.2909 4.64499 49.5188 5.78896 49.6164C8.47287 49.8443 11.0395 49.1607 13.4447 47.8911C15.0873 47.0285 16.5979 45.8892 17.2579 43.8709C18.0206 41.4946 17.9619 39.6228 15.718 38.0603Z" fill="white"/>
<path d="M6.05291 14.1831C5.86225 13.5158 5.87692 12.9787 6.11158 12.3764C6.52223 11.3348 7.24087 10.6674 8.06218 10.0489C8.5315 9.70713 8.94216 9.77224 9.33814 10.114C10.4381 11.0581 11.4794 12.0509 11.2154 13.8413C11.1421 14.3784 11.3474 14.3133 11.7141 14.1668C13.034 13.6623 13.7967 12.5229 14.222 11.2045C14.7206 9.62575 14.53 8.14462 13.2393 6.97273C12.4327 6.2403 11.5087 5.68691 10.6874 4.97075C9.7928 4.17322 9.5288 0.332031 9.5288 0.332031C8.70749 1.16212 8.12085 2.49677 8.3995 3.34313C8.47283 3.55472 8.54617 3.78259 8.38486 3.94535C8.2382 4.09184 8.04754 4.04301 7.91555 3.91279C7.4169 3.40823 7.00624 3.71748 6.62492 4.05928C5.26097 5.26372 4.10234 6.6472 3.2517 8.3562C1.90241 11.0743 3.76499 13.6948 6.05291 14.1831Z" fill="white"/>
<path d="M13.8407 17.5034C13.518 17.6174 13.606 17.9266 13.5913 18.187C13.5767 18.3986 13.562 18.6265 13.5473 18.8381C13.43 19.9937 13.562 21.1656 13.078 22.2724C12.7994 22.9071 12.3887 23.2652 11.7581 23.1513C11.2594 23.0536 10.7608 22.8746 10.2768 22.7118C9.13281 22.3212 7.97419 21.9631 6.75689 22.0933C6.56623 22.1096 6.33157 22.0933 6.25824 22.3375C6.17024 22.6142 6.43423 22.6793 6.5809 22.7932C8.37017 24.2092 10.2914 25.3486 12.418 25.9996C14.8526 26.7483 16.7006 25.3648 16.7006 22.2073C16.5832 20.7587 15.8499 19.066 14.4126 17.7639C14.2513 17.5848 14.09 17.4221 13.8407 17.5034Z" fill="white"/>
<path d="M2.09308 26.3414C2.53306 26.6507 3.03172 26.6669 3.50103 26.7483C5.08498 27.0413 6.47827 26.5042 7.69556 25.3648C8.09154 24.9905 8.03289 24.7789 7.51957 24.6161C7.06492 24.4697 6.5956 24.2743 6.18494 23.9814C4.513 22.7932 4.07301 20.9377 3.94102 18.8869C3.94102 18.7567 3.94101 18.6102 3.92638 18.48C3.85304 18.1545 4.1317 17.6825 3.77971 17.5034C3.38373 17.3081 3.16373 17.8127 2.87041 18.0405C2.81174 18.0894 2.78241 18.1708 2.72375 18.2196C1.69712 19.4403 1.16913 20.9377 0.846472 22.5491C0.538488 24.1441 1.05178 25.6253 2.09308 26.3414Z" fill="white"/>
<path d="M8.66349 20.1727L8.95681 19.6519C9.51413 18.6753 10.2181 17.8127 10.6874 16.771C11.0541 15.9572 10.9954 15.3224 10.3648 14.7528C9.76346 14.2156 9.03015 13.9389 8.25284 14.0366C7.12354 14.1831 6.4929 14.8992 6.50756 16.0223C6.5222 16.3315 6.61023 16.7059 6.75688 17.0965C7.13821 18.0894 7.97418 18.5777 8.42883 19.4891C8.42883 19.4891 8.64882 20.0425 8.66349 20.1727Z" fill="white"/>
<path d="M20.151 36.2651L20.1346 35.9215L20.1182 35.8888C19.8565 36.2923 19.5239 36.6141 19.1203 36.854C18.7277 37.0939 18.3405 37.2139 17.9588 37.2139C16.8137 37.2139 16.1593 36.325 15.9957 34.5473C15.9739 34.2638 15.963 33.5331 15.963 32.3552C15.963 31.1773 16.012 30.4793 16.1102 30.2612C16.3938 30.0322 16.8518 29.9176 17.4844 29.9176C17.7352 29.9176 17.8879 29.9449 17.9424 29.9994C17.9424 30.0103 17.937 30.1576 17.9261 30.4411C17.8716 31.27 17.8443 31.908 17.8443 32.3552C17.8443 32.8023 17.8497 33.135 17.8607 33.3531C17.8716 33.5603 17.877 33.6966 17.877 33.7621C17.8879 33.8166 17.9043 33.9202 17.9261 34.0729C17.9588 34.2256 18.0024 34.3565 18.057 34.4655C18.2206 34.7818 18.4714 34.94 18.8095 34.94C19.1585 34.94 19.4639 34.7709 19.7256 34.4328C19.9983 34.0838 20.1291 33.8384 20.1182 33.6966V33.1404C20.1182 31.1446 20.151 30.0703 20.2164 29.9176C20.2709 29.8195 20.44 29.7159 20.7235 29.6068C21.018 29.4977 21.307 29.4432 21.5906 29.4432C21.8741 29.4432 22.0377 29.465 22.0814 29.5087L22.0486 30.2775C21.9832 31.8371 21.9505 33.0423 21.9505 33.893C21.9505 34.7436 21.9723 35.2835 22.0159 35.5125C22.0923 36.0578 22.2395 36.4941 22.4576 36.8213C22.4576 36.9303 22.2341 37.1048 21.7869 37.3448C21.3397 37.5847 20.958 37.7047 20.6417 37.7047C20.5545 37.7047 20.4563 37.5411 20.3473 37.2139C20.2382 36.8867 20.1728 36.5704 20.151 36.2651ZM23.636 34.6782L23.6033 30.9646C23.6033 30.3212 23.6251 29.9776 23.6687 29.934C23.7887 29.814 23.9959 29.7104 24.2904 29.6232C24.5849 29.525 24.8575 29.4759 25.1084 29.4759C25.3701 29.4759 25.501 29.5032 25.501 29.5577C25.4683 29.8522 25.4519 30.1903 25.4519 30.572C25.4519 30.9428 25.4628 31.1282 25.4846 31.1282C25.5064 31.1282 25.5282 31.1173 25.5501 31.0955C25.5719 31.0628 25.6046 31.0192 25.6482 30.9646C25.7027 30.8992 25.8064 30.7901 25.959 30.6374C26.1226 30.4848 26.2971 30.3539 26.4825 30.2448C26.9515 29.9394 27.4532 29.7868 27.9876 29.7868C28.0748 29.9285 28.1185 30.1467 28.1185 30.4411C28.1185 31.0628 28.0421 31.5045 27.8894 31.7662L27.824 31.8971L27.6113 31.8644C26.8261 31.8644 26.2099 32.1861 25.7627 32.8296C25.5882 33.0913 25.501 33.2877 25.501 33.4185V34.8582C25.501 36.1669 25.4846 36.8376 25.4519 36.8704C25.1465 37.1648 24.5467 37.3121 23.6524 37.3121C23.5651 37.3121 23.5215 37.2957 23.5215 37.263C23.5978 36.8376 23.636 35.976 23.636 34.6782ZM32.9637 36.2651L32.9473 35.9215L32.9309 35.8888C32.6692 36.2923 32.3365 36.6141 31.933 36.854C31.5404 37.0939 31.1532 37.2139 30.7715 37.2139C29.6263 37.2139 28.972 36.325 28.8084 34.5473C28.7866 34.2638 28.7757 33.5331 28.7757 32.3552C28.7757 31.1773 28.8247 30.4793 28.9229 30.2612C29.2065 30.0322 29.6645 29.9176 30.2971 29.9176C30.5479 29.9176 30.7006 29.9449 30.7551 29.9994C30.7551 30.0103 30.7497 30.1576 30.7388 30.4411C30.6843 31.27 30.657 31.908 30.657 32.3552C30.657 32.8023 30.6624 33.135 30.6733 33.3531C30.6843 33.5603 30.6897 33.6966 30.6897 33.7621C30.7006 33.8166 30.717 33.9202 30.7388 34.0729C30.7715 34.2256 30.8151 34.3565 30.8697 34.4655C31.0333 34.7818 31.2841 34.94 31.6222 34.94C31.9712 34.94 32.2766 34.7709 32.5383 34.4328C32.811 34.0838 32.9418 33.8384 32.9309 33.6966V33.1404C32.9309 31.1446 32.9637 30.0703 33.0291 29.9176C33.0836 29.8195 33.2527 29.7159 33.5362 29.6068C33.8307 29.4977 34.1197 29.4432 34.4033 29.4432C34.6868 29.4432 34.8504 29.465 34.8941 29.5087L34.8613 30.2775C34.7959 31.8371 34.7632 33.0423 34.7632 33.893C34.7632 34.7436 34.785 35.2835 34.8286 35.5125C34.905 36.0578 35.0522 36.4941 35.2703 36.8213C35.2703 36.9303 35.0467 37.1048 34.5996 37.3448C34.1524 37.5847 33.7707 37.7047 33.4544 37.7047C33.3672 37.7047 33.269 37.5411 33.16 37.2139C33.0509 36.8867 32.9855 36.5704 32.9637 36.2651ZM36.3707 34.531L36.338 28.4944C36.338 27.1311 36.3653 26.4222 36.4198 26.3677C36.5507 26.2368 36.7634 26.1114 37.0578 25.9914C37.3632 25.8714 37.6522 25.8114 37.9249 25.8114C38.1975 25.8114 38.3339 25.8333 38.3339 25.8769C38.3121 25.9859 38.2793 26.6076 38.2357 27.7418C38.203 28.8652 38.1921 29.5632 38.203 29.8358H38.4647C39.6753 29.8358 40.6623 30.1139 41.4258 30.6702C41.7312 30.8992 41.9984 31.2427 42.2274 31.7008C42.4564 32.148 42.5709 32.6715 42.5709 33.2713C42.5709 34.3074 42.151 35.1744 41.3113 35.8724C40.4715 36.5595 39.4408 37.0012 38.2194 37.1975C38.2194 37.4484 38.2139 37.5847 38.203 37.6065C38.0612 37.7483 37.8104 37.8574 37.4505 37.9337C37.1015 38.0101 36.8124 38.0482 36.5834 38.0482C36.3653 38.0482 36.2562 38.0319 36.2562 37.9992C36.3326 37.6938 36.3707 36.5377 36.3707 34.531ZM38.2521 35.398C38.5356 35.398 38.8301 35.3544 39.1355 35.2671C39.4408 35.169 39.6862 35.049 39.8716 34.9072C40.068 34.7655 40.2425 34.5419 40.3951 34.2365C40.5587 33.9311 40.6405 33.5331 40.6405 33.0423C40.6405 32.5515 40.466 32.1752 40.117 31.9135C39.7789 31.6517 39.3863 31.5209 38.9392 31.5209L38.1866 31.5699V32.7478C38.1866 34.2201 38.2084 35.1035 38.2521 35.398ZM50.4859 33.484C50.4859 34.5201 50.1696 35.4198 49.5371 36.1833C48.9154 36.9358 48.0647 37.3121 46.985 37.3121C45.9162 37.3121 45.0764 36.9794 44.4657 36.3141C43.8549 35.6489 43.5496 34.7873 43.5496 33.7294C43.5496 32.6606 43.9258 31.7172 44.6784 30.8992C45.4418 30.0703 46.467 29.6559 47.7539 29.6559C48.2774 29.6777 48.561 29.7104 48.6046 29.754C48.6482 29.7977 48.67 29.9013 48.67 30.0649C48.67 30.2285 48.6537 30.4084 48.621 30.6047C48.7845 30.6047 48.9918 30.7029 49.2426 30.8992C49.5044 31.0846 49.717 31.2755 49.8806 31.4718C50.0442 31.6681 50.186 31.9462 50.306 32.3061C50.4259 32.6551 50.4859 33.0477 50.4859 33.484ZM48.0975 32.3388C47.8466 32.1752 47.6012 32.0934 47.3613 32.0934H47.2304C47.2086 32.0498 47.1977 31.9571 47.1977 31.8153C47.1977 31.6735 47.2141 31.5372 47.2468 31.4063C46.7996 31.4063 46.3797 31.6081 45.9871 32.0116C45.6054 32.4152 45.4145 32.9768 45.4145 33.6966C45.4145 34.5473 45.6872 35.1363 46.2325 35.4635C46.4397 35.5943 46.7233 35.6598 47.0832 35.6598C47.454 35.6598 47.7975 35.4907 48.1138 35.1526C48.441 34.8145 48.6046 34.3128 48.6046 33.6476C48.6046 32.9823 48.4355 32.546 48.0975 32.3388ZM58.41 33.484C58.41 34.5201 58.0937 35.4198 57.4611 36.1833C56.8395 36.9358 55.9888 37.3121 54.9091 37.3121C53.8403 37.3121 53.0005 36.9794 52.3897 36.3141C51.779 35.6489 51.4736 34.7873 51.4736 33.7294C51.4736 32.6606 51.8499 31.7172 52.6024 30.8992C53.3658 30.0703 54.391 29.6559 55.678 29.6559C56.2015 29.6777 56.485 29.7104 56.5287 29.754C56.5723 29.7977 56.5941 29.9013 56.5941 30.0649C56.5941 30.2285 56.5777 30.4084 56.545 30.6047C56.7086 30.6047 56.9158 30.7029 57.1667 30.8992C57.4284 31.0846 57.6411 31.2755 57.8047 31.4718C57.9683 31.6681 58.1101 31.9462 58.23 32.3061C58.35 32.6551 58.41 33.0477 58.41 33.484ZM56.0215 32.3388C55.7707 32.1752 55.5253 32.0934 55.2853 32.0934H55.1545C55.1327 32.0498 55.1218 31.9571 55.1218 31.8153C55.1218 31.6735 55.1381 31.5372 55.1708 31.4063C54.7237 31.4063 54.3038 31.6081 53.9112 32.0116C53.5294 32.4152 53.3386 32.9768 53.3386 33.6966C53.3386 34.5473 53.6112 35.1363 54.1566 35.4635C54.3638 35.5943 54.6473 35.6598 55.0072 35.6598C55.378 35.6598 55.7216 35.4907 56.0379 35.1526C56.3651 34.8145 56.5287 34.3128 56.5287 33.6476C56.5287 32.9823 56.3596 32.546 56.0215 32.3388ZM59.8557 33.713L59.8067 28.0363C59.8067 26.9784 59.8339 26.4222 59.8885 26.3677C60.0193 26.2368 60.232 26.1114 60.5265 25.9914C60.8209 25.8714 61.1045 25.8114 61.3772 25.8114C61.6498 25.8114 61.7861 25.8333 61.7861 25.8769C61.7752 25.9314 61.748 26.6948 61.7043 28.1672C61.6716 29.6395 61.6553 30.5938 61.6553 31.0301C61.6553 31.4554 61.6607 31.7008 61.6716 31.7662C61.6825 31.8208 61.7043 31.848 61.7371 31.848L61.7698 31.8317C62.1188 31.4609 62.6368 30.9974 63.3239 30.4411C64.011 29.8849 64.4527 29.6068 64.649 29.6068C65.2925 30.0103 65.6142 30.3375 65.6142 30.5884C65.287 30.7956 64.8999 31.0791 64.4527 31.4391C64.0056 31.799 63.7602 32.028 63.7165 32.1261C63.7165 32.2134 63.8092 32.5297 63.9947 33.075C64.191 33.6094 64.4745 34.242 64.8453 34.9727C65.2162 35.7034 65.587 36.2542 65.9578 36.625C65.9578 36.7558 65.7178 36.9194 65.238 37.1157C64.7581 37.3121 64.3437 37.4102 63.9947 37.4102C63.8638 37.4102 63.6075 36.8976 63.2258 35.8724C62.855 34.8473 62.5987 34.0511 62.4569 33.484L62.4242 33.4349C62.3805 33.4349 62.2442 33.593 62.0152 33.9093C61.7861 34.2256 61.6716 34.4383 61.6716 34.5473L61.7207 36.216C61.7207 36.6086 61.6989 36.8267 61.6553 36.8704C61.5135 37.0121 61.2681 37.1212 60.9191 37.1975C60.5701 37.2739 60.2811 37.3121 60.052 37.3121C59.8339 37.3121 59.7249 37.2957 59.7249 37.263C59.8121 36.7831 59.8557 35.5998 59.8557 33.713Z" fill="white"/>
</svg>
