<svg width="92" height="56" viewBox="0 0 92 56" fill="none" xmlns="http://www.w3.org/2000/svg">
<path d="M91.5735 42.8052C91.3037 39.911 90.9055 37.0169 90.5715 34.137C90.4559 33.1247 90.2503 32.1267 90.2246 31.1145C90.1861 29.4464 89.775 27.8354 89.6465 26.1816C89.5823 25.3404 89.5181 24.485 89.4025 23.6296C89.3382 23.0878 89.1327 22.8169 88.5931 22.9167C87.6938 23.0878 86.7817 23.2019 85.8696 23.3872L85.0089 23.5725L84.6106 21.5338H84.6235C84.5978 21.434 84.5849 21.3199 84.5592 21.2201C84.4436 20.6641 84.1738 20.6071 83.7627 20.7497C82.8378 21.0918 81.9128 21.4482 80.975 21.7619C80.6795 21.8617 80.4226 21.9758 80.474 22.3607C80.5254 22.7741 80.7952 22.9737 81.1677 22.931C81.6302 22.874 82.0927 22.7741 82.568 22.7029C82.9277 22.6458 83.3131 22.6886 83.3773 23.1591C83.4544 23.7294 83.66 24.2569 83.737 24.8129C83.9426 26.3099 84.3665 27.7498 84.6363 29.2326C84.8675 30.4872 85.163 31.7275 85.3943 32.9679C85.754 34.9354 86.2164 36.8743 86.589 38.8275C86.756 39.7257 86.7175 39.911 85.9081 40.0821C84.3151 40.41 81.1548 42.0496 81.0649 42.1494C80.9236 42.2349 80.7695 42.3062 80.6281 42.3918C80.7181 42.5771 80.8208 42.5914 80.9236 42.5628C81.1163 42.5058 81.5017 42.3918 81.5017 42.3918C81.5531 42.3775 81.5916 42.3775 81.6302 42.3632C83.737 41.7217 85.9081 41.5363 88.0792 41.3225C88.8629 41.2369 88.9014 41.1942 88.7087 40.3388C88.2719 38.4141 87.8737 36.4751 87.4497 34.5362C87.0515 32.7255 86.6275 30.9149 86.2293 29.1042C85.9724 27.9352 85.1887 24.6133 85.1887 24.6133L87.758 24.5563L87.9251 25.6683L88.0278 26.3384C88.0278 26.3526 88.0278 26.3669 88.0278 26.3812C88.092 27.037 88.1178 27.6928 88.2205 28.3344C88.5931 30.6155 88.7087 32.9394 89.0684 35.2347C89.351 37.0311 89.4538 38.856 89.7364 40.6524C89.9805 42.1779 89.8649 42.3347 88.5032 42.3347C87.2827 42.3347 84.9189 42.8908 84.9189 42.8908C84.8419 42.905 84.7648 42.9193 84.6877 42.9193C84.7134 43.1331 84.8033 43.1759 84.9189 43.1902C85.1245 43.2187 85.3172 43.2472 85.5227 43.2757C85.5227 43.2757 89.0684 43.5608 90.8541 43.6606C91.5992 43.7034 91.6506 43.6464 91.5735 42.8052Z" fill="black"/>
<path d="M85.677 38.2145C85.4843 37.687 85.2787 37.1737 85.086 36.6462C84.4694 34.9639 83.8656 33.2816 83.2361 31.5992C82.5295 29.7031 81.8101 27.8211 81.1036 25.925C80.4612 24.1714 79.8574 22.4177 79.2022 20.6641C78.8554 19.7517 78.6755 19.6947 77.8276 20.1081C76.8513 20.5929 75.9135 21.1346 75.0014 21.7762C73.7424 22.6601 72.6119 23.7294 71.597 24.927C71.8025 24.8129 72.0209 24.6989 72.2136 24.5706C73.8195 23.544 75.4253 22.5603 77.2495 22.0756C77.8148 21.9187 78.0974 22.1611 78.2773 22.6031C78.6627 23.544 78.9838 24.5278 79.3179 25.4973C80.1914 28.0065 81.0522 30.5157 81.9258 33.0249C82.4525 34.5504 82.9792 36.0617 83.5059 37.5872C83.6472 38.0006 83.5958 38.2145 83.1847 38.3856C82.2854 38.7705 81.4504 39.2695 80.6154 39.8255C79.7161 40.4101 78.8425 41.0374 77.9947 41.7075C77.7763 41.8785 77.5707 42.0496 77.3523 42.235C77.4679 42.406 77.5707 42.3918 77.6735 42.349C77.8533 42.2635 78.046 42.1779 78.2387 42.0924C80.4997 41.0374 82.7993 40.0822 85.176 39.3551C85.8055 39.1697 85.9082 38.8561 85.677 38.2145Z" fill="black"/>
<path d="M72.7275 27.9922C74.1406 27.2366 75.4381 26.2243 76.9283 25.654C75.2583 25.8109 73.8708 26.6235 72.7275 27.9922Z" fill="black"/>
<path d="M78.804 32.8111C78.7397 32.5687 78.5213 32.6115 78.3672 32.6685C77.1981 33.0819 76.1961 33.7663 75.284 34.7785C75.4253 34.8213 75.5024 34.8641 75.5409 34.8498C76.4787 34.1227 77.4679 33.4954 78.5599 33.0962C78.6755 33.0392 78.8425 32.9822 78.804 32.8111Z" fill="black"/>
<path d="M79.973 36.0759C78.7269 36.3325 77.7249 37.1167 76.7742 37.9863C76.6971 38.0576 76.6843 38.1574 76.7485 38.2287C76.8127 38.3 76.9027 38.2857 76.9798 38.2287C78.0075 37.4161 79.138 36.8173 80.2685 36.1329C80.1786 36.1044 80.0758 36.0617 79.973 36.0759Z" fill="black"/>
<path d="M77.3523 29.3467C77.2624 29.1185 77.0054 29.2326 76.8384 29.3181C75.9392 29.7316 75.117 30.2734 74.359 31.0718C74.616 31.2001 74.7444 31.0718 74.8986 30.9862C75.5923 30.5585 76.2989 30.1308 77.0054 29.7031C77.1468 29.6318 77.4679 29.6603 77.3523 29.3467Z" fill="black"/>
<path d="M17.1045 42.6527C15.9185 41.8233 14.5376 41.4267 13.173 41.0841C11.386 40.6334 9.58273 40.2728 7.84444 39.6238C6.78848 39.2452 6.20364 38.524 6.21989 37.6586C6.21989 36.7211 7.34083 34.7559 8.0069 34.5215C8.15311 34.4675 8.33182 34.4675 8.47802 34.4855C10.0051 34.7199 11.516 34.5396 12.9781 34.1249C14.4077 33.7283 15.7073 33.0071 16.5359 31.5287C16.6658 31.3124 16.9258 31.1321 16.7633 30.8256C16.6008 30.5552 16.3247 30.6273 16.0972 30.6453C14.9275 30.6633 13.7579 30.7354 12.6856 30.0864C11.4185 29.3292 10.1188 29.1849 8.68922 29.5636C6.80473 30.0684 5.03395 31.0419 3.05199 31.078C2.6296 31.078 2.61336 31.4566 2.87329 31.7811C3.0195 31.9614 3.1982 32.0876 3.36065 32.2319C4.46535 33.1513 4.46536 33.1513 3.79929 34.4855C3.76679 34.5396 3.71806 34.5756 3.70181 34.6297C2.79206 36.9194 2.67833 38.9567 4.95272 40.7957C6.10616 41.7151 7.42206 42.256 8.77045 42.6346C10.7849 43.1935 12.8319 43.5901 14.8463 44.1671C16.877 44.744 17.6243 45.8618 16.3247 48.0974C14.1315 51.8835 8.26683 54.5338 3.99423 52.803C2.82455 52.3342 2.61335 51.9376 2.79206 50.5674C2.97076 49.2513 3.66932 48.2236 4.27041 47.1238C4.92024 45.8979 5.89497 44.9243 6.49606 43.4459C6.23613 43.5541 6.1549 43.5541 6.08992 43.6082C4.09171 45.5193 2.36967 47.6647 1.49241 50.4953C1.05378 51.8835 1.49241 53.2537 2.54837 54.1732C3.58809 55.0927 4.839 55.3451 6.10616 55.4533C9.07911 55.7057 11.9221 54.9485 14.5864 53.5422C16.4059 52.5867 18.0792 51.3246 18.8103 49.089C19.655 46.4568 19.59 44.3834 17.1045 42.6527Z" fill="black"/>
<path d="M6.39855 16.204C6.18735 15.4649 6.2036 14.8699 6.46353 14.2028C6.9184 13.049 7.71444 12.3098 8.6242 11.6247C9.14405 11.2461 9.59894 11.3182 10.0376 11.6968C11.256 12.7425 12.4094 13.8422 12.117 15.8254C12.0358 16.4204 12.2632 16.3483 12.6694 16.186C14.1315 15.6271 14.9762 14.3651 15.4474 12.9047C15.9997 11.1559 15.7885 9.51527 14.3589 8.21717C13.4654 7.40587 12.4419 6.79288 11.5322 5.99961C10.5412 5.11618 10.2488 0.861328 10.2488 0.861328C9.33901 1.78081 8.68918 3.25919 8.99785 4.1967C9.07907 4.43108 9.1603 4.68348 8.98163 4.86378C8.81917 5.02604 8.60798 4.97195 8.46177 4.82771C7.90942 4.26881 7.45454 4.61137 7.03216 4.98997C5.52131 6.32412 4.23791 7.85659 3.29566 9.74964C1.80107 12.7605 3.86423 15.6632 6.39855 16.204Z" fill="black"/>
<path d="M15.025 19.882C14.6676 20.0082 14.765 20.3507 14.7488 20.6392C14.7326 20.8736 14.7163 21.126 14.7001 21.3603C14.5701 22.6404 14.7163 23.9385 14.1802 25.1645C13.8715 25.8676 13.4167 26.2642 12.7181 26.138C12.1657 26.0299 11.6134 25.8315 11.0773 25.6512C9.81013 25.2186 8.52673 24.8219 7.17834 24.9661C6.96715 24.9841 6.70721 24.9661 6.62598 25.2366C6.52851 25.5431 6.82093 25.6152 6.98339 25.7414C8.96535 27.3099 11.0935 28.572 13.4492 29.2931C16.1459 30.1224 18.1929 28.59 18.1929 25.0923C18.0629 23.4878 17.2506 21.6127 15.6586 20.1704C15.4799 19.9721 15.3012 19.7918 15.025 19.882Z" fill="black"/>
<path d="M2.01226 29.6717C2.49963 30.0143 3.05199 30.0323 3.57185 30.1224C5.32638 30.447 6.8697 29.852 8.2181 28.59C8.65672 28.1753 8.59175 27.9409 8.02315 27.7606C7.51953 27.5984 6.99967 27.382 6.54479 27.0575C4.69279 25.7414 4.20542 23.6861 4.05921 21.4144C4.05921 21.2702 4.05921 21.1079 4.043 20.9637C3.96177 20.6031 4.27044 20.0803 3.88054 19.882C3.44191 19.6656 3.19822 20.2245 2.87331 20.4769C2.80832 20.531 2.77584 20.6211 2.71086 20.6752C1.57366 22.0274 0.988822 23.6861 0.631411 25.471C0.290259 27.2378 0.858829 28.8784 2.01226 29.6717Z" fill="black"/>
<path d="M9.29026 22.8387L9.61517 22.2618C10.2325 21.1801 11.0123 20.2245 11.5322 19.0707C11.9383 18.1692 11.8733 17.4661 11.1748 16.8351C10.5087 16.2401 9.6964 15.9336 8.83538 16.0418C7.58447 16.204 6.88591 16.9973 6.90216 18.2413C6.91837 18.5839 7.01588 18.9985 7.17833 19.4312C7.60072 20.531 8.52672 21.0719 9.03034 22.0815C9.03034 22.0815 9.27402 22.6945 9.29026 22.8387Z" fill="black"/>
<path d="M22.137 41.1409L22.1184 40.7516L22.0999 40.7145C21.8033 41.1718 21.4264 41.5363 20.9692 41.8081C20.5244 42.08 20.0857 42.2159 19.6532 42.2159C18.3557 42.2159 17.6142 41.2088 17.4289 39.1946C17.4042 38.8733 17.3918 38.0454 17.3918 36.7108C17.3918 35.3763 17.4474 34.5854 17.5586 34.3383C17.8799 34.0788 18.3989 33.949 19.1156 33.949C19.3999 33.949 19.5729 33.9799 19.6346 34.0417C19.6346 34.054 19.6285 34.2209 19.6161 34.5422C19.5543 35.4813 19.5234 36.2042 19.5234 36.7108C19.5234 37.2175 19.5296 37.5944 19.542 37.8415C19.5543 38.0763 19.5605 38.2308 19.5605 38.3049C19.5729 38.3667 19.5914 38.4841 19.6161 38.6571C19.6532 38.8301 19.7026 38.9784 19.7644 39.1019C19.9497 39.4603 20.234 39.6395 20.617 39.6395C21.0125 39.6395 21.3585 39.4479 21.655 39.0649C21.964 38.6694 22.1122 38.3914 22.0999 38.2308V37.6005C22.0999 35.3392 22.137 34.122 22.2111 33.949C22.2729 33.8378 22.4644 33.7204 22.7857 33.5968C23.1193 33.4733 23.4468 33.4115 23.7681 33.4115C24.0894 33.4115 24.2747 33.4362 24.3242 33.4856L24.2871 34.3568C24.213 36.1239 24.1759 37.4893 24.1759 38.4532C24.1759 39.417 24.2006 40.0287 24.25 40.2882C24.3365 40.9061 24.5033 41.4004 24.7505 41.7711C24.7505 41.8946 24.4972 42.0924 23.9905 42.3642C23.4839 42.6361 23.0514 42.772 22.693 42.772C22.5942 42.772 22.483 42.5866 22.3594 42.2159C22.2358 41.8452 22.1617 41.4869 22.137 41.1409ZM26.0856 39.3429L26.0486 35.1353C26.0486 34.4062 26.0733 34.017 26.1227 33.9675C26.2586 33.8316 26.4934 33.7142 26.8271 33.6154C27.1607 33.5042 27.4696 33.4485 27.7539 33.4485C28.0504 33.4485 28.1987 33.4794 28.1987 33.5412C28.1616 33.8749 28.1431 34.2579 28.1431 34.6904C28.1431 35.1106 28.1555 35.3206 28.1802 35.3206C28.2049 35.3206 28.2296 35.3083 28.2543 35.2836C28.279 35.2465 28.3161 35.1971 28.3655 35.1353C28.4273 35.0612 28.5447 34.9376 28.7177 34.7646C28.9031 34.5916 29.1008 34.4433 29.3108 34.3197C29.8422 33.9737 30.4106 33.8007 31.0161 33.8007C31.115 33.9614 31.1644 34.2085 31.1644 34.5422C31.1644 35.2465 31.0779 35.747 30.9049 36.0435L30.8308 36.1918L30.5898 36.1548C29.7001 36.1548 29.0019 36.5193 28.4953 37.2484C28.2976 37.5449 28.1987 37.7674 28.1987 37.9156V39.5468C28.1987 41.0296 28.1802 41.7896 28.1431 41.8267C27.7971 42.1603 27.1175 42.3271 26.1042 42.3271C26.0053 42.3271 25.9559 42.3086 25.9559 42.2715C26.0424 41.7896 26.0856 40.8134 26.0856 39.3429ZM36.6542 41.1409L36.6356 40.7516L36.6171 40.7145C36.3205 41.1718 35.9436 41.5363 35.4864 41.8081C35.0416 42.08 34.6029 42.2159 34.1704 42.2159C32.8729 42.2159 32.1315 41.2088 31.9461 39.1946C31.9214 38.8733 31.909 38.0454 31.909 36.7108C31.909 35.3763 31.9646 34.5854 32.0759 34.3383C32.3971 34.0788 32.9161 33.949 33.6329 33.949C33.9171 33.949 34.0901 33.9799 34.1519 34.0417C34.1519 34.054 34.1457 34.2209 34.1333 34.5422C34.0715 35.4813 34.0406 36.2042 34.0406 36.7108C34.0406 37.2175 34.0468 37.5944 34.0592 37.8415C34.0715 38.0763 34.0777 38.2308 34.0777 38.3049C34.0901 38.3667 34.1086 38.4841 34.1333 38.6571C34.1704 38.8301 34.2198 38.9784 34.2816 39.1019C34.467 39.4603 34.7512 39.6395 35.1342 39.6395C35.5297 39.6395 35.8757 39.4479 36.1722 39.0649C36.4812 38.6694 36.6295 38.3914 36.6171 38.2308V37.6005C36.6171 35.3392 36.6542 34.122 36.7283 33.949C36.7901 33.8378 36.9816 33.7204 37.3029 33.5968C37.6366 33.4733 37.964 33.4115 38.2853 33.4115C38.6066 33.4115 38.792 33.4362 38.8414 33.4856L38.8043 34.3568C38.7302 36.1239 38.6931 37.4893 38.6931 38.4532C38.6931 39.417 38.7178 40.0287 38.7672 40.2882C38.8537 40.9061 39.0206 41.4004 39.2677 41.7711C39.2677 41.8946 39.0144 42.0924 38.5077 42.3642C38.0011 42.6361 37.5686 42.772 37.2102 42.772C37.1114 42.772 37.0002 42.5866 36.8766 42.2159C36.753 41.8452 36.6789 41.4869 36.6542 41.1409ZM40.5145 39.1761L40.4774 32.3364C40.4774 30.7918 40.5083 29.9885 40.5701 29.9268C40.7184 29.7785 40.9594 29.6364 41.293 29.5004C41.639 29.3645 41.9665 29.2965 42.2754 29.2965C42.5843 29.2965 42.7388 29.3213 42.7388 29.3707C42.7141 29.4943 42.677 30.1986 42.6276 31.4838C42.5905 32.7565 42.5782 33.5474 42.5905 33.8563H42.8871C44.2587 33.8563 45.377 34.1714 46.242 34.8017C46.588 35.0612 46.8908 35.4504 47.1503 35.9694C47.4098 36.476 47.5395 37.0692 47.5395 37.7488C47.5395 38.9228 47.0638 39.9051 46.1123 40.696C45.1608 41.4745 43.993 41.975 42.6091 42.1974C42.6091 42.4816 42.6029 42.6361 42.5905 42.6608C42.4299 42.8214 42.1457 42.945 41.7379 43.0315C41.3424 43.118 41.015 43.1612 40.7555 43.1612C40.5083 43.1612 40.3848 43.1427 40.3848 43.1056C40.4713 42.7596 40.5145 41.4498 40.5145 39.1761ZM42.6461 40.1585C42.9674 40.1585 43.3011 40.109 43.6471 40.0102C43.993 39.899 44.2711 39.763 44.4812 39.6024C44.7036 39.4418 44.9013 39.1884 45.0743 38.8424C45.2597 38.4964 45.3523 38.0454 45.3523 37.4893C45.3523 36.9333 45.1546 36.5069 44.7592 36.2104C44.3761 35.9138 43.9313 35.7655 43.4246 35.7655L42.572 35.8211V37.1557C42.572 38.8239 42.5967 39.8248 42.6461 40.1585ZM56.5075 37.9898C56.5075 39.1637 56.1491 40.1832 55.4324 41.0482C54.7281 41.9008 53.7642 42.3271 52.5409 42.3271C51.3299 42.3271 50.3784 41.9503 49.6864 41.1965C48.9944 40.4427 48.6484 39.4665 48.6484 38.2678C48.6484 37.0568 49.0747 35.9879 49.9273 35.0612C50.7923 34.122 51.9539 33.6524 53.412 33.6524C54.0052 33.6772 54.3265 33.7142 54.3759 33.7637C54.4253 33.8131 54.45 33.9305 54.45 34.1158C54.45 34.3012 54.4315 34.5051 54.3944 34.7275C54.5798 34.7275 54.8146 34.8387 55.0988 35.0612C55.3953 35.2712 55.6363 35.4875 55.8217 35.7099C56.007 35.9323 56.1677 36.2474 56.3036 36.6552C56.4395 37.0506 56.5075 37.4955 56.5075 37.9898ZM53.8013 36.6923C53.5171 36.5069 53.239 36.4143 52.9672 36.4143H52.8189C52.7942 36.3648 52.7818 36.2598 52.7818 36.0991C52.7818 35.9385 52.8004 35.784 52.8374 35.6358C52.3308 35.6358 51.855 35.8644 51.4102 36.3216C50.9777 36.7788 50.7614 37.4152 50.7614 38.2308C50.7614 39.1946 51.0704 39.8619 51.6882 40.2326C51.923 40.3809 52.2443 40.455 52.6521 40.455C53.0722 40.455 53.4615 40.2635 53.8198 39.8804C54.1905 39.4974 54.3759 38.9289 54.3759 38.1751C54.3759 37.4214 54.1844 36.9271 53.8013 36.6923ZM65.4857 37.9898C65.4857 39.1637 65.1274 40.1832 64.4106 41.0482C63.7063 41.9008 62.7424 42.3271 61.5191 42.3271C60.3081 42.3271 59.3566 41.9503 58.6646 41.1965C57.9726 40.4427 57.6266 39.4665 57.6266 38.2678C57.6266 37.0568 58.0529 35.9879 58.9055 35.0612C59.7705 34.122 60.9321 33.6524 62.3903 33.6524C62.9834 33.6772 63.3047 33.7142 63.3541 33.7637C63.4035 33.8131 63.4283 33.9305 63.4283 34.1158C63.4283 34.3012 63.4097 34.5051 63.3726 34.7275C63.558 34.7275 63.7928 34.8387 64.077 35.0612C64.3736 35.2712 64.6145 35.4875 64.7999 35.7099C64.9853 35.9323 65.1459 36.2474 65.2818 36.6552C65.4178 37.0506 65.4857 37.4955 65.4857 37.9898ZM62.7795 36.6923C62.4953 36.5069 62.2173 36.4143 61.9454 36.4143H61.7971C61.7724 36.3648 61.76 36.2598 61.76 36.0991C61.76 35.9385 61.7786 35.784 61.8156 35.6358C61.309 35.6358 60.8333 35.8644 60.3884 36.3216C59.9559 36.7788 59.7397 37.4152 59.7397 38.2308C59.7397 39.1946 60.0486 39.8619 60.6664 40.2326C60.9012 40.3809 61.2225 40.455 61.6303 40.455C62.0504 40.455 62.4397 40.2635 62.798 39.8804C63.1688 39.4974 63.3541 38.9289 63.3541 38.1751C63.3541 37.4214 63.1626 36.9271 62.7795 36.6923ZM67.1238 38.2493L67.0682 31.8174C67.0682 30.6188 67.0991 29.9885 67.1609 29.9268C67.3092 29.7785 67.5501 29.6364 67.8838 29.5004C68.2174 29.3645 68.5387 29.2965 68.8476 29.2965C69.1566 29.2965 69.311 29.3213 69.311 29.3707C69.2987 29.4325 69.2678 30.2975 69.2183 31.9657C69.1813 33.6339 69.1627 34.7152 69.1627 35.2094C69.1627 35.6914 69.1689 35.9694 69.1813 36.0435C69.1936 36.1053 69.2183 36.1362 69.2554 36.1362L69.2925 36.1177C69.6879 35.6975 70.2749 35.1724 71.0534 34.5422C71.8319 33.9119 72.3323 33.5968 72.5548 33.5968C73.2838 34.054 73.6484 34.4248 73.6484 34.709C73.2777 34.9438 72.839 35.265 72.3323 35.6728C71.8257 36.0806 71.5477 36.3401 71.4982 36.4513C71.4982 36.5502 71.6033 36.9085 71.8133 37.5264C72.0358 38.1319 72.3571 38.8486 72.7772 39.6765C73.1973 40.5045 73.6175 41.1285 74.0376 41.5486C74.0376 41.6969 73.7658 41.8823 73.2221 42.1047C72.6783 42.3271 72.2088 42.4384 71.8133 42.4384C71.6651 42.4384 71.3747 41.8576 70.9422 40.696C70.522 39.5344 70.2316 38.6324 70.071 37.9898L70.0339 37.9342C69.9845 37.9342 69.83 38.1134 69.5705 38.4717C69.311 38.8301 69.1813 39.071 69.1813 39.1946L69.2369 41.0853C69.2369 41.5301 69.2122 41.7773 69.1627 41.8267C69.0021 41.9873 68.7241 42.1109 68.3286 42.1974C67.9332 42.2839 67.6057 42.3271 67.3462 42.3271C67.0991 42.3271 66.9755 42.3086 66.9755 42.2715C67.0744 41.7278 67.1238 40.3871 67.1238 38.2493Z" fill="black"/>
</svg>
