<svg width="24" height="24" viewBox="0 0 24 24" fill="none" xmlns="http://www.w3.org/2000/svg">
<path d="M19.5567 8.65821V17.9072C19.5567 20.753 17.8587 21.7016 15.7622 21.7016H8.17335C6.07692 21.7016 4.37891 20.753 4.37891 17.9072V8.65821C4.37891 5.57523 6.07692 4.86377 8.17335 4.86377C8.17335 5.45191 8.41048 5.98313 8.79941 6.37206C9.18834 6.76099 9.71959 6.99814 10.3077 6.99814H13.6279C14.8041 6.99814 15.7622 6.04005 15.7622 4.86377C17.8587 4.86377 19.5567 5.57523 19.5567 8.65821Z" stroke="current" stroke-width="1.42292" stroke-linecap="round" stroke-linejoin="round"/>
<path d="M15.7627 4.86387C15.7627 6.04015 14.8046 6.99824 13.6283 6.99824H10.3082C9.72006 6.99824 9.18882 6.76109 8.79989 6.37216C8.41096 5.98322 8.17383 5.45201 8.17383 4.86387C8.17383 3.68759 9.13193 2.72949 10.3082 2.72949H13.6283C14.2165 2.72949 14.7477 2.96665 15.1367 3.35558C15.5256 3.74451 15.7627 4.27573 15.7627 4.86387Z" stroke="current" stroke-width="1.42292" stroke-linecap="round" stroke-linejoin="round"/>
<path d="M8.17383 13.1641H11.9683" stroke="current" stroke-width="1.42292" stroke-linecap="round" stroke-linejoin="round"/>
<path d="M8.17383 16.9585H15.7627" stroke="current" stroke-width="1.42292" stroke-linecap="round" stroke-linejoin="round"/>
</svg>
