<svg width="23" height="23" viewBox="0 0 23 23" fill="none" xmlns="http://www.w3.org/2000/svg">
<path d="M11.7949 6.23389V9.26114" stroke="#292D32" stroke-width="1.36363" stroke-miterlimit="10" stroke-linecap="round"/>
<path d="M11.8137 2.19727C8.46824 2.19727 5.75916 4.90634 5.75916 8.25178V10.1609C5.75916 10.779 5.50462 11.7063 5.18644 12.2336L4.0319 14.1608C3.32281 15.3517 3.81372 16.679 5.1228 17.1154C9.46823 18.5608 14.1682 18.5608 18.5136 17.1154C19.7409 16.7063 20.2682 15.2699 19.6045 14.1608L18.45 12.2336C18.1318 11.7063 17.8773 10.7699 17.8773 10.1609V8.25178C17.8682 4.92452 15.1409 2.19727 11.8137 2.19727Z" stroke="#292D32" stroke-width="1.36363" stroke-miterlimit="10" stroke-linecap="round"/>
<path d="M14.8221 17.4883C14.8221 19.1519 13.4585 20.5155 11.7948 20.5155C10.9676 20.5155 10.2039 20.1701 9.65848 19.6246C9.11303 19.0792 8.76758 18.3155 8.76758 17.4883" stroke="#292D32" stroke-width="1.36363" stroke-miterlimit="10"/>
<circle cx="17.9624" cy="4.17384" r="3.32014" fill="#FF3737" stroke="white" stroke-width="0.948611"/>
</svg>
