<svg width="24" height="24" viewBox="0 0 24 24" fill="none" xmlns="http://www.w3.org/2000/svg">
<path d="M11.7049 2.30273C6.4875 2.30273 2.21875 6.57148 2.21875 11.7888C2.21875 17.0062 6.4875 21.275 11.7049 21.275C16.9222 21.275 21.191 17.0062 21.191 11.7888C21.191 6.57148 16.9222 2.30273 11.7049 2.30273ZM11.7049 19.3777C7.52149 19.3777 4.11597 15.9722 4.11597 11.7888C4.11597 7.60547 7.52149 4.19996 11.7049 4.19996C15.8882 4.19996 19.2938 7.60547 19.2938 11.7888C19.2938 15.9722 15.8882 19.3777 11.7049 19.3777ZM6.96181 14.6347H16.4479V16.5319H6.96181V14.6347ZM10.0922 11.03L8.28986 9.2276L6.96181 10.5557L10.0922 13.6861L16.4479 7.33037L15.1199 6.00232L10.0922 11.03Z" fill="current"/>
</svg>
