<svg width="46" height="47" viewBox="0 0 46 47" fill="none" xmlns="http://www.w3.org/2000/svg">
<mask id="mask0_1619_14646" style="mask-type:alpha" maskUnits="userSpaceOnUse" x="0" y="0" width="46" height="47">
<rect x="0.367188" y="0.955566" width="45.5246" height="45.5246" fill="#C4C4C4"/>
</mask>
<g mask="url(#mask0_1619_14646)">
<path d="M28.7551 34.1784C28.6999 34.1287 28.6355 34.0904 28.5655 34.0656C28.4955 34.0408 28.4213 34.0301 28.3472 34.034C28.273 34.0379 28.2004 34.0563 28.1334 34.0883C28.0664 34.1203 28.0063 34.1651 27.9567 34.2203L27.0649 35.2111C26.9684 35.323 26.9195 35.4684 26.9289 35.6159C26.9382 35.7634 27.005 35.9015 27.1149 36.0003C27.2248 36.0992 27.369 36.1511 27.5167 36.1449C27.6645 36.1387 27.8038 36.0748 27.905 35.9671L28.7969 34.9763C28.8971 34.8649 28.949 34.7183 28.9411 34.5687C28.9333 34.4191 28.8664 34.2787 28.7551 34.1784Z" fill="#979797"/>
<path d="M31.4298 31.2058C31.3746 31.1561 31.3102 31.1178 31.2403 31.093C31.1703 31.0682 31.0961 31.0574 31.022 31.0613C30.9478 31.0652 30.8752 31.0837 30.8082 31.1156C30.7412 31.1476 30.6811 31.1925 30.6314 31.2477L29.2936 32.7338C29.2439 32.7889 29.2056 32.8533 29.1808 32.9233C29.1561 32.9933 29.1453 33.0674 29.1492 33.1416C29.1531 33.2157 29.1716 33.2883 29.2035 33.3553C29.2355 33.4223 29.2803 33.4824 29.3355 33.532C29.3907 33.5817 29.4551 33.62 29.5251 33.6448C29.595 33.6695 29.6692 33.6803 29.7433 33.6764C29.8174 33.6725 29.8901 33.654 29.9571 33.6221C30.0241 33.5901 30.0841 33.5453 30.1338 33.4901L31.4716 32.004C31.5719 31.8926 31.6238 31.7459 31.616 31.5962C31.6082 31.4465 31.5412 31.3061 31.4298 31.2058V31.2058Z" fill="#979797"/>
<path d="M25.7776 34.0527C25.7221 34.0035 25.6574 33.9657 25.5872 33.9415C25.517 33.9173 25.4428 33.9072 25.3687 33.9117C25.2946 33.9162 25.2221 33.9352 25.1554 33.9677C25.0886 34.0003 25.029 34.0456 24.9798 34.1012L23.6473 35.6061C23.5973 35.6615 23.5588 35.7263 23.534 35.7967C23.5092 35.8671 23.4986 35.9417 23.5028 36.0162C23.5071 36.0907 23.526 36.1637 23.5585 36.2309C23.5911 36.298 23.6366 36.3581 23.6925 36.4076C23.7483 36.457 23.8135 36.495 23.8841 36.5191C23.9547 36.5433 24.0294 36.5533 24.1039 36.5484C24.1783 36.5436 24.2511 36.524 24.318 36.4909C24.3849 36.4578 24.4445 36.4118 24.4935 36.3555L25.826 34.8506C25.8753 34.795 25.913 34.7303 25.9372 34.6601C25.9614 34.59 25.9716 34.5157 25.9671 34.4416C25.9626 34.3675 25.9436 34.295 25.911 34.2283C25.8785 34.1616 25.8332 34.1019 25.7776 34.0527V34.0527Z" fill="#979797"/>
<path d="M27.6031 32.8446L29.3799 30.8384C29.4291 30.7828 29.4669 30.7181 29.4911 30.6479C29.5153 30.5778 29.5254 30.5035 29.5209 30.4294C29.5164 30.3553 29.4974 30.2829 29.4649 30.2161C29.4324 30.1494 29.387 30.0897 29.3315 30.0405C29.2759 29.9913 29.2112 29.9535 29.141 29.9293C29.0709 29.9051 28.9966 29.895 28.9225 29.8995C28.8484 29.904 28.7759 29.923 28.7092 29.9555C28.6425 29.988 28.5828 30.0334 28.5336 30.0889L26.7569 32.0951C26.7069 32.1505 26.6683 32.2153 26.6435 32.2857C26.6187 32.3561 26.608 32.4308 26.6122 32.5053C26.6164 32.5799 26.6353 32.6529 26.6678 32.7201C26.7004 32.7873 26.7459 32.8473 26.8018 32.8969C26.8577 32.9464 26.9228 32.9843 26.9935 33.0085C27.0641 33.0327 27.1388 33.0426 27.2133 33.0378C27.2879 33.0329 27.3607 33.0133 27.4276 32.9802C27.4945 32.947 27.5541 32.9009 27.6031 32.8446V32.8446Z" fill="#979797"/>
<path d="M39.868 23.7445C39.9258 23.6402 39.949 23.5202 39.9344 23.4019C39.9199 23.2835 39.8682 23.1728 39.7869 23.0855C39.7764 23.0743 39.7653 23.064 39.7541 23.0537C39.727 22.9323 39.6966 22.8109 39.6619 22.6897C39.4019 21.7775 38.9358 20.9373 38.2995 20.2338C38.2844 20.116 38.2326 20.0059 38.1514 19.9192C38.0703 19.8325 37.9639 19.7736 37.8473 19.7508C37.8326 19.748 37.818 19.7463 37.8034 19.7446C36.9963 19.0327 36.0192 18.5409 34.9666 18.3169C34.8851 18.2309 34.7785 18.1727 34.6621 18.1505C34.5457 18.1283 34.4252 18.1433 34.3177 18.1933C34.3049 18.1993 34.2926 18.2062 34.2804 18.213C33.2098 18.1113 32.1311 18.2885 31.1493 18.7272C31.0321 18.7043 30.9106 18.7192 30.8024 18.7696C30.6941 18.82 30.6046 18.9034 30.5467 19.0078C30.5393 19.0213 30.533 19.0349 30.5267 19.0486C30.1197 19.2882 29.7414 19.5737 29.3992 19.8993L27.3777 18.5781L27.8935 18.2249C28.5061 17.8052 29.2176 17.5524 29.9577 17.4914C30.5407 17.4442 31.103 17.2535 31.5944 16.9362C32.0859 16.619 32.4912 16.185 32.7742 15.6731C32.819 15.5923 32.8433 15.5018 32.8449 15.4094C32.8466 15.317 32.8256 15.2256 32.7838 15.1433C32.7419 15.0609 32.6805 14.99 32.605 14.9369C32.5294 14.8837 32.4419 14.8499 32.3503 14.8384L29.7843 14.5142C28.5527 14.3599 27.3055 14.6335 26.2516 15.2892L24.2522 16.5359L22.0775 15.114C21.732 14.8879 21.3114 14.8067 20.9065 14.8879C20.8563 14.8288 20.7945 14.7808 20.7249 14.7467C20.6553 14.7126 20.5795 14.6932 20.502 14.6897L13.6417 14.398L13.5247 14.2273L15.3241 13.1869C15.3947 13.1461 15.4557 13.0905 15.5027 13.0239C15.5498 12.9573 15.5819 12.8813 15.5969 12.8012L15.9567 10.872L17.8859 11.2318C17.9806 11.2495 18.0783 11.2426 18.1696 11.2119C18.261 11.1812 18.3429 11.1277 18.4078 11.0564C18.4726 10.9851 18.5181 10.8985 18.54 10.8046C18.5619 10.7108 18.5594 10.6129 18.5329 10.5203L18.2213 9.43369C18.2008 9.36233 18.1665 9.29571 18.1203 9.23762C18.0741 9.17953 18.0169 9.13111 17.952 9.09512L14.8527 7.37757C14.4408 7.14782 13.9875 7.00204 13.519 6.94868C13.0504 6.89532 12.5759 6.93543 12.123 7.0667C11.3771 7.28226 10.7206 7.73242 10.2507 8.35045L9.15316 9.79974C9.07332 9.90524 9.03301 10.0354 9.03928 10.1676C9.04554 10.2997 9.09797 10.4255 9.18743 10.523L9.56097 10.9297C9.12921 11.0775 8.73823 11.3248 8.41958 11.6515C7.82641 12.2569 7.35922 12.9741 7.04505 13.7613C6.73088 14.5485 6.57596 15.3903 6.58926 16.2378L6.92267 21.2965C7.10607 21.9385 7.48711 22.5064 8.01168 22.9195C8.53625 23.3326 9.17766 23.5699 9.84478 23.5976L12.831 23.7248L6.62021 26.8899C6.53361 26.94 6.46185 27.0122 6.41226 27.099C6.36266 27.1859 6.33701 27.2844 6.33791 27.3844C6.33882 27.4844 6.36625 27.5824 6.41741 27.6684C6.46857 27.7543 6.54162 27.8252 6.62911 27.8736L8.02732 28.6487C8.09224 28.6847 8.16362 28.7075 8.23737 28.7159C8.31113 28.7243 8.38581 28.7181 8.45717 28.6977L10.2141 28.1938L10.9438 28.8751C11.0151 28.9418 11.1025 28.9888 11.1974 29.0116C11.2923 29.0344 11.3915 29.0323 11.4853 29.0053L14.0737 28.2635L16.4274 28.7025C16.4313 28.7032 16.4351 28.7034 16.439 28.704L16.553 29.0046C15.7189 28.7962 14.8505 28.7643 14.0034 28.911C13.8955 28.8596 13.774 28.8437 13.6565 28.8657C13.539 28.8877 13.4315 28.9464 13.3494 29.0333C13.3385 29.0449 13.3282 29.057 13.3187 29.0692C13.1993 29.104 13.0804 29.1412 12.9624 29.1834C12.0685 29.501 11.2595 30.0198 10.5979 30.6998C10.4813 30.7224 10.3748 30.7812 10.2935 30.8678C10.2122 30.9544 10.1603 31.0644 10.1451 31.1821C10.1431 31.197 10.1424 31.2117 10.1416 31.2264C9.48266 32.0773 9.05437 33.0838 8.89811 34.1487C8.81749 34.2355 8.7662 34.3455 8.75151 34.4631C8.73681 34.5807 8.75945 34.7 8.81622 34.804C8.82286 34.8161 8.83092 34.827 8.83827 34.8384C8.8045 35.9136 9.05038 36.9792 9.55185 37.931C9.53627 38.0496 9.55869 38.17 9.6159 38.275C9.6731 38.38 9.76214 38.4642 9.87021 38.5154C9.88434 38.522 9.89847 38.5272 9.91225 38.5325C10.5161 39.4194 11.3393 40.1349 12.3016 40.6093C12.3582 40.7155 12.4471 40.8007 12.5556 40.8527C12.664 40.9047 12.7862 40.9207 12.9043 40.8984C12.9209 40.8952 12.9371 40.8913 12.9531 40.8866C13.9626 41.252 15.0498 41.3483 16.1078 41.166C16.2155 41.2169 16.3366 41.2324 16.4537 41.2103C16.5707 41.1882 16.6778 41.1296 16.7595 41.0429C16.7705 41.0313 16.7807 41.0191 16.7902 41.0068C16.9093 40.9721 17.0282 40.935 17.1465 40.8928C18.0401 40.575 18.8488 40.0562 19.5101 39.3765C19.6268 39.3539 19.7335 39.2951 19.8148 39.2084C19.8962 39.1217 19.9482 39.0116 19.9634 38.8937C19.9653 38.8789 19.9661 38.8641 19.9668 38.8494C20.6258 37.9985 21.054 36.992 21.2103 35.9271C21.291 35.8403 21.3423 35.7303 21.3569 35.6127C21.3716 35.4951 21.349 35.3758 21.2922 35.2718C21.2851 35.2593 21.2781 35.2476 21.2702 35.2359C21.2946 34.4566 21.1721 33.6797 20.9091 32.9458C20.8103 32.671 20.6926 32.4035 20.5566 32.1452C20.5723 32.0266 20.5499 31.9061 20.4927 31.801C20.4355 31.696 20.3464 31.6118 20.2383 31.5606C20.2246 31.5541 20.2107 31.5488 20.1969 31.5435C20.1333 31.45 20.0673 31.3581 19.9986 31.268L21.9678 30.7034C22.0521 30.6792 22.1297 30.6356 22.1943 30.5762L26.8486 26.3018C26.9488 26.2097 27.0124 26.0846 27.0278 25.9494C27.0432 25.8143 27.0093 25.6781 26.9324 25.5659L25.0282 22.7882L25.2167 20.9325L27.7409 22.5826C27.4927 23.3844 27.4115 24.2286 27.5023 25.0631C27.4448 25.1674 27.4217 25.2872 27.4363 25.4055C27.451 25.5237 27.5026 25.6343 27.5838 25.7214C27.5945 25.7329 27.6059 25.7433 27.6174 25.7538C27.6446 25.8752 27.6742 25.9965 27.7088 26.1172C27.9688 27.0294 28.435 27.8697 29.0712 28.5732C29.0863 28.691 29.1382 28.8011 29.2194 28.8878C29.3007 28.9745 29.4072 29.0334 29.5238 29.0561C29.5385 29.059 29.5532 29.0608 29.5678 29.0625C30.375 29.7745 31.3522 30.266 32.405 30.4897C32.4863 30.5759 32.5927 30.6343 32.7091 30.6565C32.8255 30.6788 32.946 30.6637 33.0533 30.6134C33.0652 30.6079 33.0764 30.6015 33.0878 30.5952C33.2831 30.614 33.4793 30.6234 33.6763 30.6234C34.5541 30.6225 35.4219 30.4372 36.2235 30.0795C36.3404 30.1034 36.4619 30.089 36.57 30.0386C36.6781 29.9882 36.7672 29.9043 36.824 29.7995C36.8311 29.7865 36.8373 29.7733 36.8434 29.76C37.7671 29.2139 38.5337 28.4379 39.0685 27.5077C39.1782 27.4579 39.2691 27.3745 39.328 27.2695C39.3869 27.1645 39.4108 27.0434 39.3961 26.9239C39.394 26.9072 39.3909 26.8908 39.3875 26.8745C39.8161 25.8904 39.9817 24.8118 39.868 23.7445V23.7445ZM26.8497 16.2483C27.6829 15.73 28.6688 15.5137 29.6425 15.6356L31.1935 15.8315C30.8145 16.1392 30.3513 16.3249 29.8648 16.3644C28.9286 16.4416 28.0287 16.7613 27.2537 17.2922L26.3539 17.9091L25.2955 17.2172L26.8497 16.2483ZM31.5874 22.6804L31.5918 22.6832L33.5078 23.9356C33.5605 23.9703 33.6052 24.0159 33.639 24.0692C33.6728 24.1226 33.695 24.1825 33.7039 24.245C33.7128 24.3075 33.7084 24.3712 33.6909 24.4319C33.6735 24.4926 33.6433 24.5488 33.6024 24.597C33.5315 24.6803 33.4325 24.7347 33.3242 24.7499C33.2159 24.7652 33.1057 24.7402 33.0145 24.6797L21.4558 17.1238C21.5142 17.0005 21.5259 16.8603 21.4887 16.7291L21.2775 15.9928C21.3422 16.0018 21.4042 16.0249 21.4589 16.0604L31.5874 22.6804ZM34.8233 24.0848C34.7915 23.8637 34.7131 23.6518 34.5934 23.4631C34.4736 23.2745 34.3152 23.1134 34.1285 22.9906L32.9969 22.251C33.0187 22.2439 33.0404 22.2369 33.0625 22.2304C33.4912 22.1074 33.9467 22.1139 34.3717 22.2492C34.7967 22.3844 35.1722 22.6423 35.451 22.9905C35.7297 23.3386 35.8993 23.7614 35.9383 24.2057C35.9774 24.65 35.8841 25.0959 35.6704 25.4873C35.4566 25.8787 35.1318 26.1982 34.7369 26.4055C34.342 26.6127 33.8946 26.6986 33.451 26.6522C33.0074 26.6058 32.5875 26.4293 32.244 26.1448C31.9005 25.8603 31.6489 25.4806 31.5207 25.0534L32.3945 25.6246C32.6481 25.7918 32.9446 25.8822 33.2483 25.8849C33.5521 25.8876 33.8501 25.8025 34.1067 25.6399C34.3632 25.4773 34.5673 25.244 34.6945 24.9681C34.8216 24.6922 34.8663 24.3855 34.8233 24.0848V24.0848ZM17.0979 36.0052C16.9388 36.3413 16.6993 36.6329 16.4006 36.8543C16.1019 37.0756 15.7532 37.2199 15.3854 37.2743C15.0176 37.3287 14.6421 37.2916 14.292 37.1662C13.942 37.0408 13.6283 36.8311 13.3787 36.5555C13.1292 36.2799 12.9514 35.947 12.8612 35.5863C12.771 35.2256 12.7711 34.8483 12.8616 34.4876C12.9521 34.127 13.1301 33.7943 13.3799 33.5189C13.6296 33.2435 13.9435 33.0339 14.2936 32.9088C14.3739 32.8806 14.4557 32.8568 14.5387 32.8377L13.877 33.7116C13.6318 34.0358 13.5199 34.4416 13.5643 34.8457C13.6088 35.2497 13.8062 35.6215 14.1161 35.8845C14.4018 36.1288 14.7653 36.2629 15.1412 36.2625C15.1967 36.2625 15.2522 36.2596 15.3074 36.2539C15.5208 36.2328 15.7277 36.1684 15.9154 36.0646C16.103 35.9609 16.2676 35.8199 16.3989 35.6503L17.2609 34.546C17.3718 35.0369 17.3144 35.5509 17.0979 36.0052V36.0052ZM17.4804 31.451C17.5182 31.5504 17.5834 31.6371 17.6684 31.701C17.7534 31.7649 17.8548 31.8035 17.9608 31.8123L15.5077 34.9545C15.4328 35.0497 15.3234 35.1115 15.2032 35.1265C15.0831 35.1415 14.9618 35.1085 14.8658 35.0347C14.7698 34.9609 14.7068 34.8522 14.6904 34.7322C14.674 34.6122 14.7055 34.4906 14.7782 34.3938L17.3222 31.0337L17.4804 31.451ZM18.3531 30.5639L16.342 25.2606L17.9246 24.8067L18.8594 28.0667C18.8883 28.1676 18.9448 28.2584 19.0224 28.329C19.1001 28.3996 19.1959 28.4472 19.299 28.4665L20.0974 28.6153C20.3763 28.6687 20.6327 28.8045 20.8337 29.005C21.0347 29.2055 21.1709 29.4617 21.2249 29.7404L18.3531 30.5639ZM16.1936 20.0519L11.7511 19.2233L11.8196 17.6145C12.2673 17.9252 12.7993 18.0915 13.3443 18.0913C13.3989 18.0913 17.4586 17.8467 17.4586 17.8467L19.2995 18.4339C19.3815 18.46 19.4684 18.4671 19.5536 18.4546C19.6387 18.4421 19.7199 18.4103 19.7909 18.3616L20.5196 17.862L20.7135 17.9888L17.4922 20.6882C17.1258 20.3611 16.6766 20.141 16.1936 20.0519V20.0519ZM14.8968 24.4991L13.0593 25.0259L12.9583 24.916L14.7691 24.054L14.8968 24.4991ZM20.3049 27.5041L19.8501 27.4193L19.0116 24.4952L20.8318 23.9733L23.8245 27.5445L22.1908 29.0449C22.0295 28.6514 21.7725 28.3045 21.4432 28.0354C21.1139 27.7663 20.7227 27.5837 20.305 27.5041H20.3049ZM20.5937 22.8655L18.7003 23.4085L18.1783 21.5883L21.7024 18.635L22.0211 18.8434L20.5937 22.8655ZM20.2899 16.6489L19.38 17.2729L18.3587 16.9471L19.0176 15.7583L20.0474 15.8021L20.2899 16.6489ZM17.7545 15.7046L17.1858 16.7308L13.4407 16.9579C13.1825 16.9741 12.9243 16.9252 12.6898 16.8159C12.4553 16.7066 12.252 16.5403 12.0983 16.3322L10.566 14.2661C10.4677 14.134 10.4219 13.9701 10.4375 13.8062C10.4532 13.6423 10.5292 13.4901 10.6508 13.3791C10.7723 13.2659 10.9323 13.2032 11.0983 13.2034C11.1243 13.2034 11.1503 13.2048 11.1762 13.2078C11.2712 13.218 11.3628 13.2488 11.4446 13.298C11.5264 13.3473 11.5965 13.4138 11.65 13.4929L12.8688 15.2705C12.9185 15.3429 12.9842 15.4027 13.061 15.4452C13.1377 15.4878 13.2233 15.5118 13.311 15.5156L17.7545 15.7046ZM14.6638 11.6368L14.1026 11.1606L14.1844 10.7226L14.8292 10.75L14.6638 11.6368ZM11.1517 9.03274C11.4738 8.60925 11.9237 8.30083 12.4349 8.15319C12.7452 8.06327 13.0703 8.03581 13.3913 8.0724C13.7123 8.10898 14.0229 8.2089 14.305 8.36634L17.1542 9.94563L13.7429 9.57231C13.6071 9.5666 13.4737 9.61008 13.3673 9.69477C13.2608 9.77946 13.1885 9.89969 13.1636 10.0334L12.9319 11.2758C12.9136 11.3738 12.9215 11.4748 12.9549 11.5687C12.9883 11.6626 13.0458 11.746 13.1218 11.8105L14.0643 12.61L13.1336 13.1481L10.3391 10.1062L11.1517 9.03274ZM9.22926 12.4404C9.55291 12.1093 9.99247 11.9167 10.4553 11.9034L10.6615 12.1283C10.3753 12.2003 10.1113 12.3418 9.89282 12.5402C9.67434 12.7386 9.50815 12.9879 9.40895 13.2658C9.30975 13.5438 9.2806 13.8419 9.32408 14.1338C9.36757 14.4257 9.48235 14.7024 9.65826 14.9393L10.7398 16.3984L10.621 19.1937L7.76343 19.5887L7.7197 16.2231C7.70869 15.5241 7.83644 14.8298 8.09556 14.1805C8.35467 13.5312 8.74001 12.9397 9.22926 12.4404V12.4404ZM8.0093 20.9851L7.92954 20.7069L11.1522 20.2618L15.9864 21.1632C16.2706 21.2152 16.5344 21.3458 16.7481 21.5401C16.9618 21.7344 17.1168 21.9847 17.1955 22.2627L17.6135 23.7202L15.9835 24.1876L15.6719 23.1009C15.6392 22.9869 15.5714 22.8861 15.4782 22.8127C15.385 22.7393 15.2711 22.6971 15.1526 22.6921L9.89282 22.4682C9.46283 22.4504 9.0494 22.2975 8.71127 22.0312C8.37315 21.765 8.12753 21.3989 8.0093 20.9851V20.9851ZM8.37034 27.5465L8.04993 27.3689L8.84067 26.9117L9.25045 27.2942L8.37034 27.5465ZM14.1497 27.1274C14.0634 27.1113 13.9746 27.1155 13.8903 27.1397L11.481 27.8305L9.9126 26.3662L11.8909 25.4245L12.4632 26.0478C12.5341 26.1253 12.6253 26.1813 12.7264 26.2098C12.8275 26.2382 12.9345 26.2379 13.0354 26.2089L15.2521 25.573L15.9701 27.4665L14.1497 27.1274ZM16.7665 39.8281C16.6493 39.87 16.5314 39.9058 16.4132 39.9385L15.5739 39.1465C15.5199 39.0955 15.4564 39.0557 15.387 39.0293C15.3177 39.0029 15.2438 38.9904 15.1696 38.9926C15.0954 38.9948 15.0223 39.0115 14.9546 39.0419C14.8869 39.0723 14.8258 39.1157 14.7749 39.1697C14.7239 39.2237 14.6841 39.2872 14.6577 39.3566C14.6313 39.4259 14.6188 39.4998 14.621 39.574C14.6231 39.6482 14.6399 39.7213 14.6703 39.789C14.7006 39.8567 14.7441 39.9178 14.7981 39.9687L14.9616 40.123C14.3845 40.1115 13.8134 40.0019 13.273 39.7989L13.06 38.667C13.0322 38.5197 12.9471 38.3895 12.8233 38.3049C12.6995 38.2203 12.5472 38.1884 12.3999 38.2162C12.2526 38.2439 12.1223 38.329 12.0377 38.4528C11.9532 38.5766 11.9213 38.7289 11.949 38.8762L11.9898 39.0948C11.5293 38.7484 11.1313 38.3259 10.8131 37.8455L11.3076 36.8015C11.3394 36.7344 11.3576 36.6617 11.3613 36.5876C11.365 36.5134 11.354 36.4393 11.329 36.3694C11.3041 36.2995 11.2656 36.2352 11.2157 36.1802C11.1659 36.1252 11.1057 36.0805 11.0387 36.0487C10.9716 36.017 10.8989 35.9987 10.8248 35.9951C10.7506 35.9914 10.6765 36.0024 10.6066 36.0273C10.5367 36.0523 10.4724 36.0908 10.4174 36.1406C10.3624 36.1905 10.3177 36.2506 10.2859 36.3177L10.1894 36.5215C10.0206 35.9695 9.94765 35.3926 9.97379 34.8159L10.9865 34.2622C11.1181 34.1903 11.2157 34.069 11.2578 33.9252C11.3 33.7813 11.2833 33.6266 11.2114 33.4951C11.1395 33.3635 11.0183 33.266 10.8744 33.2238C10.7306 33.1816 10.5759 33.1983 10.4443 33.2702L10.2501 33.3762C10.4389 32.8318 10.7181 32.3232 11.0759 31.8717L12.2195 32.0189C12.368 32.0377 12.5179 31.9968 12.6363 31.9052C12.7548 31.8136 12.832 31.6788 12.8511 31.5303C12.8702 31.3818 12.8297 31.2318 12.7383 31.1132C12.6469 30.9946 12.5123 30.9171 12.3638 30.8977L12.1406 30.869C12.5118 30.609 12.9161 30.3999 13.3428 30.2473C13.4595 30.2056 13.5774 30.1696 13.696 30.1368L14.5356 30.9289C14.5894 30.9806 14.653 31.0211 14.7226 31.0481C14.7921 31.0751 14.8664 31.0881 14.941 31.0862C15.0156 31.0844 15.0892 31.0678 15.1573 31.0374C15.2255 31.007 15.287 30.9634 15.3382 30.9091C15.3894 30.8548 15.4294 30.7909 15.4558 30.7211C15.4822 30.6512 15.4945 30.5769 15.492 30.5023C15.4895 30.4277 15.4722 30.3543 15.4412 30.2864C15.4102 30.2185 15.3661 30.1574 15.3114 30.1067L15.1466 29.9512C15.6238 29.9599 16.0974 30.036 16.5532 30.1773L15.4258 31.6664C14.6728 31.582 13.9133 31.7513 13.2675 32.1476C12.6217 32.5438 12.1266 33.1443 11.8608 33.8539C11.595 34.5634 11.5737 35.3413 11.8001 36.0644C12.0266 36.7874 12.488 37.4142 13.1111 37.8452C13.7342 38.2763 14.4833 38.4871 15.2398 38.4441C15.9962 38.4011 16.7167 38.1069 17.2869 37.608C17.8572 37.1091 18.2446 36.4341 18.3877 35.6901C18.5308 34.946 18.4215 34.1755 18.077 33.5007L19.1905 32.0741C19.227 32.1251 19.2619 32.1772 19.2965 32.2295L18.8019 33.2741C18.7696 33.3412 18.7508 33.4141 18.7468 33.4886C18.7427 33.563 18.7534 33.6375 18.7783 33.7078C18.8031 33.7781 18.8416 33.8428 18.8916 33.8981C18.9415 33.9534 19.0019 33.9984 19.0693 34.0303C19.1367 34.0622 19.2097 34.0804 19.2842 34.084C19.3586 34.0875 19.4331 34.0763 19.5032 34.051C19.5733 34.0257 19.6377 33.9867 19.6927 33.9364C19.7477 33.8861 19.7922 33.8254 19.8236 33.7578L19.9202 33.5537C20.0898 34.1051 20.1638 34.6815 20.1392 35.2579L19.1231 35.8134C19.058 35.849 19.0005 35.897 18.9539 35.9548C18.9073 36.0126 18.8725 36.079 18.8516 36.1502C18.8307 36.2214 18.824 36.2961 18.8319 36.3699C18.8399 36.4437 18.8622 36.5152 18.8978 36.5803C18.9334 36.6455 18.9814 36.703 19.0392 36.7496C19.097 36.7962 19.1634 36.8309 19.2346 36.8518C19.3058 36.8727 19.3805 36.8794 19.4543 36.8715C19.5281 36.8636 19.5996 36.8412 19.6647 36.8056L19.8626 36.6975C19.8017 36.8735 19.7314 37.0462 19.652 37.2147C19.4851 37.5669 19.2785 37.8989 19.0363 38.2043L17.8895 38.0567C17.8158 38.0471 17.7409 38.0521 17.6691 38.0714C17.5974 38.0908 17.5301 38.1241 17.4713 38.1694C17.4124 38.2148 17.363 38.2713 17.326 38.3357C17.289 38.4002 17.2651 38.4713 17.2556 38.545C17.2461 38.6187 17.2512 38.6936 17.2707 38.7653C17.2902 38.837 17.3236 38.9042 17.3691 38.963C17.4146 39.0218 17.4712 39.071 17.5357 39.1079C17.6002 39.1448 17.6714 39.1686 17.7451 39.1779L17.9705 39.207C17.5984 39.4665 17.1935 39.6754 16.7663 39.8281H16.7665ZM23.9788 23.2568L25.723 25.8008L24.6577 26.779L21.6697 23.2132L22.9944 19.48L24.151 20.236L23.8825 22.8799C23.869 23.013 23.9031 23.1465 23.9788 23.2568ZM36.2157 28.8158L35.2054 28.2557C35.0743 28.1831 34.9197 28.1654 34.7756 28.2068C34.6315 28.2481 34.5097 28.3449 34.437 28.4761C34.3643 28.6072 34.3467 28.7618 34.3881 28.9059C34.4294 29.05 34.5262 29.1718 34.6574 29.2444L34.8552 29.3539C34.294 29.4878 33.7141 29.5248 33.1405 29.4633L32.651 28.4137C32.6203 28.3455 32.5763 28.2841 32.5216 28.2331C32.4669 28.182 32.4026 28.1423 32.3325 28.1163C32.2623 28.0903 32.1877 28.0784 32.113 28.0815C32.0382 28.0845 31.9648 28.1024 31.897 28.134C31.8292 28.1656 31.7684 28.2103 31.718 28.2657C31.6676 28.321 31.6287 28.3857 31.6036 28.4562C31.5784 28.5266 31.5675 28.6014 31.5714 28.6761C31.5754 28.7508 31.5941 28.824 31.6266 28.8914L31.7219 29.0959C31.5501 29.0239 31.3822 28.9427 31.2191 28.8527C30.8783 28.6636 30.5601 28.4362 30.2708 28.1749L30.4915 27.0399C30.5058 26.967 30.5056 26.8919 30.4909 26.8191C30.4761 26.7463 30.4472 26.677 30.4057 26.6154C30.3642 26.5538 30.311 26.5009 30.249 26.4599C30.1871 26.4188 30.1176 26.3904 30.0447 26.3762C29.9717 26.3621 29.8967 26.3624 29.8239 26.3772C29.7511 26.3921 29.6819 26.4211 29.6204 26.4628C29.5588 26.5044 29.506 26.5577 29.4651 26.6197C29.4242 26.6817 29.3959 26.7512 29.3818 26.8242L29.3384 27.0472C29.1031 26.6593 28.9205 26.2418 28.7954 25.8056C28.7613 25.6866 28.7322 25.567 28.7069 25.447L29.5518 24.659C29.6071 24.6087 29.6519 24.5479 29.6836 24.4801C29.7152 24.4123 29.7331 24.3389 29.7361 24.2641C29.7392 24.1894 29.7274 24.1148 29.7014 24.0446C29.6754 23.9745 29.6358 23.9102 29.5847 23.8555C29.5337 23.8008 29.4723 23.7568 29.4042 23.7259C29.336 23.6951 29.2624 23.6782 29.1876 23.676C29.1128 23.6739 29.0384 23.6866 28.9686 23.7134C28.8987 23.7403 28.8349 23.7807 28.7809 23.8324L28.6128 23.9893C28.634 23.7342 28.6746 23.481 28.7344 23.232L30.2976 24.2538C30.2777 24.7109 30.3504 25.1673 30.5113 25.5956C30.6722 26.0239 30.918 26.4152 31.234 26.7461C31.5499 27.077 31.9295 27.3406 32.35 27.5211C32.7704 27.7016 33.2229 27.7952 33.6804 27.7963C33.9983 27.7961 34.3146 27.7514 34.6201 27.6634C35.0866 27.5298 35.5189 27.2975 35.8879 26.9825C36.2569 26.6674 36.554 26.2768 36.7591 25.8371C36.9643 25.3974 37.0726 24.9187 37.077 24.4335C37.0813 23.9483 36.9814 23.4679 36.7841 23.0246C36.5869 22.5813 36.2967 22.1854 35.9334 21.8639C35.57 21.5423 35.1419 21.3024 34.6779 21.1605C34.2139 21.0185 33.7249 20.9778 33.2438 21.041C32.7627 21.1042 32.3008 21.27 31.8893 21.527L30.3773 20.5387C30.6185 20.3321 30.8785 20.1487 31.1541 19.9908L32.1652 20.5512C32.2963 20.6239 32.451 20.6415 32.5951 20.6002C32.7392 20.5589 32.8609 20.462 32.9336 20.3309C33.0063 20.1998 33.0239 20.0452 32.9826 19.9011C32.9413 19.757 32.8444 19.6352 32.7133 19.5625L32.5155 19.4531C33.0766 19.3192 33.6565 19.2822 34.2301 19.3437L34.7196 20.3933C34.7839 20.5277 34.8986 20.6312 35.0388 20.6815C35.179 20.7317 35.3334 20.7246 35.4683 20.6616C35.6033 20.5987 35.708 20.485 35.7596 20.3453C35.8112 20.2056 35.8057 20.0512 35.7441 19.9156L35.6487 19.7112C36.1811 19.9336 36.6718 20.245 37.0996 20.6321L36.879 21.7671C36.8647 21.84 36.8649 21.915 36.8796 21.9879C36.8944 22.0607 36.9233 22.1299 36.9648 22.1916C37.0063 22.2532 37.0595 22.3061 37.1215 22.3471C37.1834 22.3881 37.2529 22.4166 37.3258 22.4307C37.3988 22.4449 37.4738 22.4446 37.5466 22.4297C37.6194 22.4149 37.6886 22.3858 37.7501 22.3442C37.8117 22.3026 37.8645 22.2493 37.9054 22.1873C37.9463 22.1252 37.9746 22.0558 37.9887 21.9828L38.032 21.7597C38.2673 22.1477 38.4499 22.5652 38.575 23.0013C38.6094 23.121 38.6374 23.2409 38.6626 23.3609L37.8186 24.1479C37.7111 24.2507 37.6484 24.3917 37.6442 24.5403C37.6399 24.689 37.6944 24.8333 37.7958 24.942C37.8972 25.0508 38.0374 25.1152 38.186 25.1213C38.3346 25.1274 38.4796 25.0747 38.5896 24.9746L38.7541 24.8212C38.7057 25.3965 38.5598 25.9594 38.3227 26.4858L37.1794 26.6262C37.0306 26.6445 36.8952 26.7211 36.8029 26.8392C36.7106 26.9574 36.669 27.1073 36.6873 27.2561C36.7056 27.4049 36.7822 27.5403 36.9003 27.6326C37.0185 27.7249 37.1684 27.7665 37.3172 27.7482L37.5378 27.7212C37.1627 28.1586 36.7157 28.5288 36.216 28.8158H36.2157Z" fill="#979797"/>
</g>
</svg>
