<svg width="46" height="47" viewBox="0 0 46 47" fill="none" xmlns="http://www.w3.org/2000/svg">
<path d="M43.7584 29.2937C43.947 29.2937 44.1279 29.2188 44.2613 29.0854C44.3947 28.952 44.4697 28.7711 44.4697 28.5824V25.7371C44.4697 25.5485 44.3947 25.3676 44.2613 25.2342C44.1279 25.1008 43.947 25.0258 43.7584 25.0258H40.6302C39.731 25.0249 38.8449 24.8098 38.0454 24.3983C37.2459 23.9869 36.5558 23.3909 36.0325 22.6597C35.299 21.6349 34.2728 20.8558 33.0885 20.4247V18.6239C33.0885 18.4353 33.0136 18.2543 32.8802 18.1209C32.7468 17.9875 32.5659 17.9126 32.3772 17.9126H29.5319C29.3433 17.9126 29.1623 17.9875 29.0289 18.1209C28.8955 18.2543 28.8206 18.4353 28.8206 18.6239V20.4247C27.6364 20.8558 26.6101 21.6349 25.8767 22.6598C25.3533 23.3909 24.6633 23.9869 23.8637 24.3984C23.0642 24.8098 22.1782 25.0249 21.279 25.0258H18.1508C17.9621 25.0258 17.7812 25.1008 17.6478 25.2342C17.5144 25.3676 17.4395 25.5485 17.4395 25.7371V28.5824C17.4395 28.7711 17.5144 28.952 17.6478 29.0854C17.7812 29.2188 17.9621 29.2937 18.1508 29.2937H20.5564L19.1338 32.139H18.1508C17.9621 32.139 17.7812 32.214 17.6478 32.3474C17.5144 32.4808 17.4395 32.6617 17.4395 32.8504V33.206C17.4395 34.4323 17.9266 35.6083 18.7937 36.4754C19.6608 37.3425 20.8368 37.8296 22.063 37.8296C23.2893 37.8296 24.4653 37.3425 25.3324 36.4754C26.1995 35.6083 26.6866 34.4323 26.6866 33.206V32.8504C26.6866 32.6617 26.6117 32.4808 26.4783 32.3474C26.3449 32.214 26.164 32.139 25.9753 32.139H24.9923L23.5697 29.2937H25.9753C26.1042 29.2937 26.2307 29.2587 26.3413 29.1924L28.678 27.7904C28.725 27.7621 28.7726 27.7349 28.8206 27.7086V39.0369L27.7286 40.6749H25.264C25.1319 40.6749 25.0024 40.7117 24.89 40.7811C24.7777 40.8506 24.6869 40.9499 24.6278 41.0681L23.2051 43.9134C23.1509 44.0218 23.1253 44.1423 23.1307 44.2635C23.1362 44.3846 23.1725 44.5023 23.2363 44.6055C23.3 44.7086 23.389 44.7937 23.495 44.8528C23.6009 44.9118 23.7201 44.9428 23.8414 44.9428H38.0678C38.189 44.9428 38.3083 44.9118 38.4142 44.8528C38.5201 44.7937 38.6091 44.7086 38.6729 44.6055C38.7366 44.5023 38.773 44.3846 38.7784 44.2635C38.7838 44.1423 38.7582 44.0218 38.704 43.9134L37.2814 41.0681C37.2223 40.9499 37.1315 40.8506 37.0191 40.7811C36.9067 40.7117 36.7772 40.6749 36.6451 40.6749H34.1805L33.0885 39.0369V27.7086C33.1365 27.735 33.1841 27.7621 33.2311 27.7904L35.5678 29.1924C35.6784 29.2587 35.8049 29.2937 35.9338 29.2937H38.3395L36.9168 32.139H35.9338C35.7452 32.139 35.5642 32.214 35.4308 32.3474C35.2974 32.4808 35.2225 32.6617 35.2225 32.8504V33.206C35.2225 34.4323 35.7096 35.6083 36.5767 36.4754C37.4438 37.3425 38.6198 37.8296 39.8461 37.8296C41.0723 37.8296 42.2484 37.3425 43.1155 36.4754C43.9826 35.6083 44.4697 34.4323 44.4697 33.206V32.8504C44.4697 32.6617 44.3947 32.4808 44.2613 32.3474C44.1279 32.214 43.947 32.139 43.7584 32.139H42.7753L41.3527 29.2937H43.7584ZM30.2432 19.3352H31.6659V20.0879C31.1933 20.0328 30.7159 20.0328 30.2432 20.0879V19.3352ZM22.063 36.407C21.2759 36.406 20.5167 36.1154 19.93 35.5907C19.3433 35.066 18.9702 34.3438 18.8817 33.5617H25.2444C25.1559 34.3438 24.7827 35.066 24.1961 35.5907C23.6094 36.1154 22.8501 36.406 22.063 36.407V36.407ZM20.7244 32.139L22.063 29.4617L23.4017 32.139H20.7244ZM36.9168 43.5202H24.9923L25.7036 42.0975H36.2055L36.9168 43.5202ZM31.7854 39.6468L32.4708 40.6749H29.4384L30.1238 39.6468C30.2017 39.53 30.2433 39.3927 30.2432 39.2523V27.2178C30.7143 27.1404 31.1948 27.1404 31.6659 27.2178V39.2523C31.6659 39.3927 31.7075 39.53 31.7854 39.6468V39.6468ZM33.9631 26.5704H33.9631C33.0542 26.0251 32.0144 25.7371 30.9545 25.7371C29.8947 25.7371 28.8548 26.0251 27.946 26.5704L25.7783 27.8711H18.8621V26.4485H21.279C22.4046 26.4473 23.5137 26.1781 24.5145 25.663C25.5154 25.148 26.3791 24.4019 27.0343 23.4866C27.48 22.8626 28.0683 22.3541 28.7501 22.0032C29.432 21.6523 30.1877 21.4692 30.9545 21.4692C31.7214 21.4692 32.4771 21.6522 33.159 22.0031C33.8409 22.354 34.4291 22.8626 34.8748 23.4866C35.53 24.4019 36.3937 25.1479 37.3946 25.663C38.3954 26.1781 39.5046 26.4473 40.6302 26.4485H43.047V27.8711H36.1308L33.9631 26.5704ZM39.8461 36.407C39.059 36.406 38.2998 36.1154 37.7131 35.5907C37.1264 35.066 36.7533 34.3438 36.6648 33.5617H43.0274C42.9389 34.3438 42.5658 35.066 41.9791 35.5907C41.3924 36.1154 40.6332 36.406 39.8461 36.407V36.407ZM38.5074 32.139L39.8461 29.4617L41.1848 32.139H38.5074Z" fill="#979797"/>
<path d="M30.9539 25.0255C31.7396 25.0255 32.3765 24.3885 32.3765 23.6028C32.3765 22.8171 31.7396 22.1802 30.9539 22.1802C30.1682 22.1802 29.5312 22.8171 29.5312 23.6028C29.5312 24.3885 30.1682 25.0255 30.9539 25.0255Z" fill="#979797"/>
<path d="M13.8828 7.9541H20.996V9.37675H13.8828V7.9541Z" fill="#979797"/>
<path d="M10.3262 7.9541H11.7488V9.37675H10.3262V7.9541Z" fill="#979797"/>
<path d="M14.5938 12.9331H20.9956V14.3557H14.5938V12.9331Z" fill="#979797"/>
<path d="M6.76953 12.9331H13.1714V14.3557H6.76953V12.9331Z" fill="#979797"/>
<path d="M18.1504 17.9126H27.3976V19.3352H18.1504V17.9126Z" fill="#979797"/>
<path d="M11.0371 17.9126H16.7277V19.3352H11.0371V17.9126Z" fill="#979797"/>
<path d="M6.76953 17.9126H9.61482V19.3352H6.76953V17.9126Z" fill="#979797"/>
<path d="M6.76953 22.8916H16.0167V24.3142H6.76953V22.8916Z" fill="#979797"/>
<path d="M11.748 27.8711H16.016V29.2937H11.748V27.8711Z" fill="#979797"/>
<path d="M6.76953 27.8711H9.61482V29.2937H6.76953V27.8711Z" fill="#979797"/>
<path d="M6.76953 32.8501H16.0167V34.2727H6.76953V32.8501Z" fill="#979797"/>
<path d="M12.459 37.8296H18.8609V39.2522H12.459V37.8296Z" fill="#979797"/>
<path d="M6.76953 37.8296H11.0375V39.2522H6.76953V37.8296Z" fill="#979797"/>
<path d="M3.92303 44.9425H21.7061V43.5199H3.92303C3.73444 43.5196 3.55364 43.4446 3.42029 43.3113C3.28693 43.1779 3.21192 42.9971 3.21171 42.8085V4.39716C3.21192 4.20857 3.28693 4.02777 3.42029 3.89442C3.55364 3.76107 3.73444 3.68606 3.92303 3.68584H23.3728C23.53 3.68594 23.6866 3.70326 23.84 3.73748V10.7991C23.8411 11.742 24.2162 12.646 24.8829 13.3128C25.5497 13.9795 26.4537 14.3546 27.3967 14.3557H31.6646V12.933H27.3967C26.8309 12.9324 26.2885 12.7074 25.8884 12.3073C25.4884 11.9072 25.2633 11.3648 25.2627 10.7991V4.69187L33.8848 13.3139C34.0836 13.5116 34.2412 13.7468 34.3485 14.0058C34.4558 14.2648 34.5106 14.5425 34.5099 14.8229V20.0462H35.9325V14.8229C35.9338 14.3556 35.8423 13.8928 35.6635 13.4611C35.4847 13.0294 35.2221 12.6374 34.8908 12.3079L25.8877 3.305C25.5583 2.97366 25.1663 2.71098 24.7346 2.53215C24.3029 2.35332 23.8401 2.26191 23.3728 2.2632H3.92303C3.35726 2.26384 2.81486 2.48888 2.4148 2.88894C2.01475 3.28899 1.78971 3.8314 1.78906 4.39716V42.8085C1.78971 43.3743 2.01475 43.9167 2.4148 44.3168C2.81486 44.7168 3.35726 44.9419 3.92303 44.9425V44.9425Z" fill="#979797"/>
</svg>
