<svg width="19" height="18" viewBox="0 0 19 18" fill="none" xmlns="http://www.w3.org/2000/svg">
<rect x="0.835938" y="0.126953" width="17.8215" height="17.8215" rx="3.71281" fill="white"/>
<path d="M1.9455 3.84232C1.9455 2.40695 3.1091 1.24335 4.54447 1.24335H14.9403C16.3757 1.24335 17.5393 2.40695 17.5393 3.84232V14.2382C17.5393 15.6736 16.3757 16.8372 14.9403 16.8372H4.54447C3.1091 16.8372 1.9455 15.6736 1.9455 14.2382V3.84232Z" stroke="black" stroke-width="0.742562"/>
<path d="M14.0021 4.78744C13.7386 4.52387 13.3128 4.52387 13.0492 4.78744L9.74444 8.08547L6.43965 4.78069C6.17608 4.51711 5.75031 4.51711 5.48674 4.78069C5.22317 5.04426 5.22317 5.47003 5.48674 5.7336L8.79153 9.03838L5.48674 12.3432C5.22317 12.6067 5.22317 13.0325 5.48674 13.2961C5.75031 13.5597 6.17608 13.5597 6.43965 13.2961L9.74444 9.9913L13.0492 13.2961C13.3128 13.5597 13.7386 13.5597 14.0021 13.2961C14.2657 13.0325 14.2657 12.6067 14.0021 12.3432L10.6974 9.03838L14.0021 5.7336C14.2589 5.47679 14.2589 5.04426 14.0021 4.78744Z" fill="#808080"/>
</svg>
