<svg width="46" height="47" viewBox="0 0 46 47" fill="none" xmlns="http://www.w3.org/2000/svg">
<path d="M0.1875 44.5859H45.7121V46.0545H0.1875V44.5859Z" fill="#979797"/>
<path d="M18.0078 5.60798C19.6086 5.16228 21.2717 4.93539 22.9502 4.93539C27.4146 4.93539 31.6689 6.53536 35.0135 9.45628L33.2623 11.2075L41.5815 13.287L39.5021 4.9677L38.1319 6.33784C33.9488 2.5872 28.5857 0.529785 22.9502 0.529785C20.8913 0.529785 18.8501 0.805136 16.8807 1.34776L16.3418 1.49608V5.70417L17.8448 5.63368L18.0078 5.60798ZM17.8103 2.62318C19.4845 2.20832 21.2115 1.99832 22.9502 1.99832C28.4455 1.99832 33.6646 4.09025 37.6451 7.88788L38.1642 8.38278L38.7061 7.84089L39.5637 11.2699L36.1347 10.4123L37.1289 9.4181L36.5812 8.8997C32.8856 5.39578 28.0446 3.46686 22.9502 3.46686C21.2071 3.46686 19.4786 3.69374 17.8103 4.13945V2.62318Z" fill="#979797"/>
<path d="M1.00547 29.3614L1.1538 29.9004H5.36188L5.2914 28.3973L5.26496 28.2343C4.81999 26.6336 4.59311 24.9705 4.59311 23.292C4.59311 18.8283 6.19308 14.5733 9.11399 11.2279L10.8652 12.9799L12.9447 4.66064L4.62541 6.74009L5.99556 8.11023C2.24492 12.2934 0.1875 17.6564 0.1875 23.292C0.1875 25.3508 0.46285 27.3921 1.00547 29.3614V29.3614ZM7.5456 8.59705L8.04049 8.07793L7.4986 7.53604L10.9276 6.67841L10.07 10.1074L9.07581 9.11251L8.55742 9.66027C5.05349 13.3573 3.12457 18.1983 3.12457 23.292C3.12457 25.0351 3.35146 26.7636 3.79716 28.4318H2.2809C1.86604 26.7577 1.65604 25.0307 1.65604 23.292C1.65604 17.7967 3.74796 12.5775 7.5456 8.59705V8.59705Z" fill="#979797"/>
<path d="M40.6076 15.9835L40.6341 16.1465C41.0798 17.7472 41.3066 19.4103 41.3066 21.0889C41.3066 25.5525 39.7067 29.8076 36.7858 33.1529L35.0345 31.4009L32.9551 39.7202L41.2743 37.6407L39.9042 36.2706C43.6548 32.0875 45.7123 26.7244 45.7123 21.0889C45.7123 19.03 45.4369 16.9887 44.8943 15.0194L44.746 14.4805H40.5379L40.6076 15.9835ZM43.6189 15.949C44.0337 17.6231 44.2437 19.3501 44.2437 21.0889C44.2437 26.5841 42.1518 31.8033 38.3542 35.7838L37.8593 36.3029L38.4011 36.8448L34.9721 37.7024L35.8297 34.2734L36.8239 35.2683L37.3423 34.7206C40.8463 31.0235 42.7752 26.1832 42.7752 21.0889C42.7752 19.3457 42.5483 17.6173 42.1026 15.949H43.6189Z" fill="#979797"/>
<path d="M12.6699 28.4321H14.1385V29.9007H12.6699V28.4321Z" fill="#979797"/>
<path d="M15.6074 28.4321H17.076V29.9007H15.6074V28.4321Z" fill="#979797"/>
<path d="M9.73242 28.4321H11.201V29.9007H9.73242V28.4321Z" fill="#979797"/>
<path d="M9.73242 31.3691H11.201V32.8377H9.73242V31.3691Z" fill="#979797"/>
<path d="M15.6074 31.3691H17.076V32.8377H15.6074V31.3691Z" fill="#979797"/>
<path d="M12.6699 31.3691H14.1385V32.8377H12.6699V31.3691Z" fill="#979797"/>
<path d="M9.73242 34.3062H11.201V35.7747H9.73242V34.3062Z" fill="#979797"/>
<path d="M15.6074 34.3062H17.076V35.7747H15.6074V34.3062Z" fill="#979797"/>
<path d="M12.6699 34.3062H14.1385V35.7747H12.6699V34.3062Z" fill="#979797"/>
<path d="M12.6699 37.2432H14.1385V38.7117H12.6699V37.2432Z" fill="#979797"/>
<path d="M9.73242 37.2432H11.201V38.7117H9.73242V37.2432Z" fill="#979797"/>
<path d="M15.6074 37.2432H17.076V38.7117H15.6074V37.2432Z" fill="#979797"/>
<path d="M14.1387 22.5576H15.6072V24.0262H14.1387V22.5576Z" fill="#979797"/>
<path d="M11.2012 22.5576H12.6697V24.0262H11.2012V22.5576Z" fill="#979797"/>
<path d="M17.0762 22.5576H18.5447V24.0262H17.0762V22.5576Z" fill="#979797"/>
<path d="M20.0117 22.5576H21.4803V24.0262H20.0117V22.5576Z" fill="#979797"/>
<path d="M20.0117 19.6206H21.4803V21.0891H20.0117V19.6206Z" fill="#979797"/>
<path d="M14.1387 19.6206H15.6072V21.0891H14.1387V19.6206Z" fill="#979797"/>
<path d="M11.2012 19.6206H12.6697V21.0891H11.2012V19.6206Z" fill="#979797"/>
<path d="M17.0762 19.6206H18.5447V21.0891H17.0762V19.6206Z" fill="#979797"/>
<path d="M20.0117 16.6836H21.4803V18.1521H20.0117V16.6836Z" fill="#979797"/>
<path d="M17.0762 16.6836H18.5447V18.1521H17.0762V16.6836Z" fill="#979797"/>
<path d="M14.1387 16.6836H15.6072V18.1521H14.1387V16.6836Z" fill="#979797"/>
<path d="M11.2012 16.6836H12.6697V18.1521H11.2012V16.6836Z" fill="#979797"/>
<path d="M31.761 31.369H33.9638C36.7974 31.369 39.1037 29.0627 39.1037 26.2291V25.4949H35.4324C33.9947 25.4949 32.695 26.0896 31.761 27.0449V24.0263H33.9638C36.7974 24.0263 39.1037 21.72 39.1037 18.8865V18.1522H35.4324C33.9734 18.1522 32.6583 18.766 31.7214 19.7455C31.4188 17.1984 29.2483 15.2151 26.6211 15.2151H24.4183V13.7466H8.26445V25.4949H6.79591V40.1802H0.1875V41.6488H45.7121V40.1802H31.761V31.369ZM35.4324 26.9634H37.561C37.2196 28.6368 35.7371 29.9005 33.9638 29.9005H31.8352C32.1759 28.2271 33.6591 26.9634 35.4324 26.9634ZM35.4324 19.6207H37.561C37.2196 21.2941 35.7371 22.5578 33.9638 22.5578H31.8352C32.1759 20.8844 33.6591 19.6207 35.4324 19.6207ZM30.2925 40.1802H24.4183V26.8819C25.3523 27.8372 26.652 28.4319 28.0897 28.4319H30.2925V30.6347V31.369V40.1802ZM24.4925 24.0263H26.6211C28.3944 24.0263 29.8776 25.29 30.2183 26.9634H28.0897C26.3164 26.9634 24.8332 25.6997 24.4925 24.0263ZM26.6211 16.6837C28.3944 16.6837 29.8776 17.9473 30.2183 19.6207H28.0897C26.3164 19.6207 24.8332 18.357 24.4925 16.6837H26.6211ZM28.0897 21.0893H30.2925V23.2921V24.0263V24.1078C29.3585 23.1526 28.0588 22.5578 26.6211 22.5578H24.4183V19.5392C25.3523 20.4945 26.652 21.0893 28.0897 21.0893V21.0893ZM9.73298 15.2151H22.9498V15.9494V22.5578V23.2921V40.1802H20.0127V25.4949H9.73298V15.2151ZM8.26445 26.9634H18.5442V40.1802H8.26445V26.9634Z" fill="#979797"/>
</svg>
