<svg width="38" height="31" viewBox="0 0 38 31" fill="none" xmlns="http://www.w3.org/2000/svg">
<rect x="1.56385" y="2.01112" width="28.2174" height="28.2174" fill="#FF0000" stroke="#FF0000" stroke-width="1.48513"/>
<path d="M18.8237 26.7067L18.8237 26.7067L7.88914 15.8363C7.88913 15.8363 7.88913 15.8363 7.88912 15.8363C7.41963 15.3696 7.40088 14.5981 7.84279 14.1074L7.84288 14.1073L11.3267 10.2406C11.7811 9.73626 12.5546 9.71277 13.0369 10.1919L13.0371 10.192L19.0102 16.1297C19.0102 16.1297 19.0102 16.1297 19.0102 16.1297C19.0991 16.2181 19.2231 16.2143 19.307 16.1118L19.307 16.1118L30.9764 1.87021C31.4056 1.34629 32.1771 1.28148 32.6825 1.73877L36.5235 5.2112C37.0153 5.65565 37.0671 6.42587 36.6488 6.93626L18.8237 26.7067ZM18.8237 26.7067C19.3133 27.1934 20.0876 27.1488 20.5231 26.6172C20.5231 26.6172 20.5231 26.6172 20.5231 26.6172L36.6487 6.93633L18.8237 26.7067Z" fill="white" stroke="#FF0000" stroke-width="0.948611"/>
</svg>
