<svg width="32" height="36" viewBox="0 0 32 36" fill="none" xmlns="http://www.w3.org/2000/svg">
<g clip-path="url(#clip0_2:23339)">
<path d="M21.1441 15.7552C20.8666 15.4774 20.4155 15.4774 20.1381 15.7552L17.0838 18.8092L15.8081 17.5339C15.5307 17.2561 15.0796 17.2561 14.8021 17.5339C14.5243 17.8117 14.5243 18.2621 14.8021 18.5399L16.5808 20.3185C16.7195 20.4576 16.9016 20.527 17.0838 20.527C17.2659 20.527 17.448 20.4576 17.5868 20.3185L21.1441 16.7612C21.4219 16.4834 21.4219 16.0331 21.1441 15.7552Z" fill="#27AE60"/>
<path d="M25.2659 17.3256C24.8732 17.3256 24.5544 17.6443 24.5544 18.037C24.5544 21.96 21.3628 25.1516 17.4398 25.1516C13.5169 25.1516 10.3253 21.96 10.3253 18.037C10.3253 14.114 13.5169 10.9224 17.4398 10.9224C19.3498 10.9224 21.1426 11.6687 22.4887 13.0241C22.7651 13.3033 23.2158 13.3047 23.4947 13.0276C23.7736 12.7509 23.775 12.3005 23.4983 12.0216C21.8833 10.3952 19.7315 9.49951 17.4398 9.49951C12.7321 9.49951 8.90234 13.3293 8.90234 18.037C8.90234 22.7447 12.7321 26.5745 17.4398 26.5745C22.1476 26.5745 25.9773 22.7447 25.9773 18.037C25.9773 17.6443 25.6586 17.3256 25.2659 17.3256Z" fill="#27AE60"/>
</g>
<defs>
<clipPath id="clip0_2:23339">
<rect width="17.075" height="17.075" fill="white" transform="translate(8.90234 9.49951)"/>
</clipPath>
</defs>
</svg>
