<svg width="22" height="22" viewBox="0 0 22 22" fill="none" xmlns="http://www.w3.org/2000/svg">
<path d="M10.9681 13.2686C12.4088 13.2686 13.5767 12.1007 13.5767 10.66C13.5767 9.21922 12.4088 8.05127 10.9681 8.05127C9.52732 8.05127 8.35938 9.21922 8.35938 10.66C8.35938 12.1007 9.52732 13.2686 10.9681 13.2686Z" stroke="current" stroke-width="1.42292" stroke-miterlimit="10" stroke-linecap="round" stroke-linejoin="round"/>
<path d="M2.27344 11.4251V9.89463C2.27344 8.99029 3.01256 8.24246 3.9256 8.24246C5.49951 8.24246 6.14298 7.12943 5.35168 5.76422C4.89951 4.98161 5.16907 3.96423 5.96037 3.51206L7.46471 2.65119C8.15166 2.2425 9.03862 2.48598 9.44731 3.17293L9.54296 3.33814C10.3256 4.70335 11.6125 4.70335 12.4038 3.33814L12.4995 3.17293C12.9082 2.48598 13.7951 2.2425 14.4821 2.65119L15.9864 3.51206C16.7777 3.96423 17.0473 4.98161 16.5951 5.76422C15.8038 7.12943 16.4473 8.24246 18.0212 8.24246C18.9255 8.24246 19.6733 8.98159 19.6733 9.89463V11.4251C19.6733 12.3294 18.9342 13.0772 18.0212 13.0772C16.4473 13.0772 15.8038 14.1903 16.5951 15.5555C17.0473 16.3468 16.7777 17.3555 15.9864 17.8076L14.4821 18.6685C13.7951 19.0772 12.9082 18.8337 12.4995 18.1468L12.4038 17.9815C11.6212 16.6163 10.3343 16.6163 9.54296 17.9815L9.44731 18.1468C9.03862 18.8337 8.15166 19.0772 7.46471 18.6685L5.96037 17.8076C5.16907 17.3555 4.89951 16.3381 5.35168 15.5555C6.14298 14.1903 5.49951 13.0772 3.9256 13.0772C3.01256 13.0772 2.27344 12.3294 2.27344 11.4251Z" stroke="current" stroke-width="1.42292" stroke-miterlimit="10" stroke-linecap="round" stroke-linejoin="round"/>
</svg>
