<svg width="47" height="46" viewBox="0 0 47 46" fill="none" xmlns="http://www.w3.org/2000/svg">
<path d="M6.036 7.69211C7.29312 7.69211 8.31223 6.67301 8.31223 5.41588C8.31223 4.15875 7.29312 3.13965 6.036 3.13965C4.77887 3.13965 3.75977 4.15875 3.75977 5.41588C3.75977 6.67301 4.77887 7.69211 6.036 7.69211ZM6.036 4.65714C6.45504 4.65714 6.79474 4.99684 6.79474 5.41588C6.79474 5.83492 6.45504 6.17462 6.036 6.17462C5.61695 6.17462 5.27725 5.83492 5.27725 5.41588C5.27725 4.99684 5.61695 4.65714 6.036 4.65714Z" fill="#979797"/>
<path d="M12.1063 7.69211C13.3634 7.69211 14.3825 6.67301 14.3825 5.41588C14.3825 4.15875 13.3634 3.13965 12.1063 3.13965C10.8492 3.13965 9.83008 4.15875 9.83008 5.41588C9.83008 6.67301 10.8492 7.69211 12.1063 7.69211ZM12.1063 4.65714C12.5254 4.65714 12.8651 4.99684 12.8651 5.41588C12.8651 5.83492 12.5254 6.17462 12.1063 6.17462C11.6873 6.17462 11.3476 5.83492 11.3476 5.41588C11.3476 4.99684 11.6873 4.65714 12.1063 4.65714Z" fill="#979797"/>
<path d="M25.7626 7.69211H33.35C34.6071 7.69211 35.6262 6.67301 35.6262 5.41588C35.6262 4.15875 34.6071 3.13965 33.35 3.13965H25.7626C24.5054 3.13965 23.4863 4.15875 23.4863 5.41588C23.4863 6.67301 24.5054 7.69211 25.7626 7.69211ZM25.7626 4.65714H33.35C33.769 4.65714 34.1087 4.99684 34.1087 5.41588C34.1087 5.83492 33.769 6.17462 33.35 6.17462H25.7626C25.3435 6.17462 25.0038 5.83492 25.0038 5.41588C25.0038 4.99684 25.3435 4.65714 25.7626 4.65714Z" fill="#979797"/>
<path d="M36.3857 19.0732C35.465 19.0732 34.635 19.6278 34.2827 20.4784C33.9304 21.329 34.1251 22.308 34.7761 22.959C35.4271 23.61 36.4062 23.8048 37.2567 23.4524C38.1073 23.1001 38.6619 22.2701 38.6619 21.3495C38.6619 20.0923 37.6428 19.0732 36.3857 19.0732V19.0732ZM36.3857 22.1082C35.9666 22.1082 35.6269 21.7685 35.6269 21.3495C35.6269 20.9304 35.9666 20.5907 36.3857 20.5907C36.8047 20.5907 37.1444 20.9304 37.1444 21.3495C37.1444 21.7685 36.8047 22.1082 36.3857 22.1082Z" fill="#979797"/>
<path d="M36.3857 25.1431C35.465 25.1431 34.635 25.6977 34.2827 26.5482C33.9304 27.3988 34.1251 28.3778 34.7761 29.0288C35.4271 29.6798 36.4062 29.8746 37.2567 29.5223C38.1073 29.1699 38.6619 28.3399 38.6619 27.4193C38.6619 26.1622 37.6428 25.1431 36.3857 25.1431ZM36.3857 28.178C35.9666 28.178 35.6269 27.8383 35.6269 27.4193C35.6269 27.0003 35.9666 26.6606 36.3857 26.6606C36.8047 26.6606 37.1444 27.0003 37.1444 27.4193C37.1444 27.8383 36.8047 28.178 36.3857 28.178Z" fill="#979797"/>
<path d="M36.3857 31.2134C35.465 31.2134 34.635 31.768 34.2827 32.6185C33.9304 33.4691 34.1251 34.4482 34.7761 35.0991C35.4271 35.7501 36.4062 35.9449 37.2567 35.5926C38.1073 35.2403 38.6619 34.4103 38.6619 33.4896C38.6619 32.2325 37.6428 31.2134 36.3857 31.2134ZM36.3857 34.2484C35.9666 34.2484 35.6269 33.9087 35.6269 33.4896C35.6269 33.0706 35.9666 32.7309 36.3857 32.7309C36.8047 32.7309 37.1444 33.0706 37.1444 33.4896C37.1444 33.9087 36.8047 34.2484 36.3857 34.2484Z" fill="#979797"/>
<path d="M43.2142 23.6255C44.8904 23.6255 46.2492 22.2667 46.2492 20.5906C46.2492 19.7525 45.5698 19.0731 44.7317 19.0731H42.4555V18.3143C42.4555 17.0572 41.4364 16.0381 40.1793 16.0381H38.6618V3.13947C38.6618 1.4633 37.303 0.104492 35.6268 0.104492H3.75958C2.08341 0.104492 0.724609 1.4633 0.724609 3.13947V39.5591C0.724609 41.2353 2.08341 42.5941 3.75958 42.5941H33.3506V44.1116C33.3506 44.9497 34.03 45.6291 34.8681 45.6291H37.903C38.7411 45.6291 39.4205 44.9497 39.4205 44.1116V38.8004H40.1793C41.4364 38.8004 42.4555 37.7813 42.4555 36.5242V35.7654H43.2142C44.8904 35.7654 46.2492 34.4066 46.2492 32.7305C46.2492 31.8924 45.5698 31.213 44.7317 31.213H42.4555V29.6955H43.2142C44.8904 29.6955 46.2492 28.3367 46.2492 26.6605C46.2492 25.8224 45.5698 25.143 44.7317 25.143H42.4555V23.6255H43.2142ZM44.7317 20.5906C44.7317 21.4286 44.0523 22.108 43.2142 22.108H42.4555V20.5906H44.7317ZM3.75958 1.62198H35.6268C36.4649 1.62198 37.1443 2.30138 37.1443 3.13947V9.20941H2.2421V3.13947C2.2421 2.30138 2.9215 1.62198 3.75958 1.62198ZM3.75958 41.0766C2.9215 41.0766 2.2421 40.3972 2.2421 39.5591V10.7269H37.1443V16.0381H32.5918C31.3347 16.0381 30.3156 17.0572 30.3156 18.3143V19.0731H28.0394C27.2013 19.0731 26.5219 19.7525 26.5219 20.5906C26.5219 22.2667 27.8807 23.6255 29.5569 23.6255H30.3156V25.143H28.0394C27.2013 25.143 26.5219 25.8224 26.5219 26.6605C26.5219 28.3367 27.8807 29.6955 29.5569 29.6955H30.3156V31.213H28.0394C27.2013 31.213 26.5219 31.8924 26.5219 32.7305C26.5219 34.4066 27.8807 35.7654 29.5569 35.7654H30.3156V36.5242C30.3156 37.7813 31.3347 38.8004 32.5918 38.8004H33.3506V41.0766H3.75958ZM30.3156 34.2479H29.5569C28.7188 34.2479 28.0394 33.5685 28.0394 32.7305H30.3156V34.2479ZM30.3156 28.178H29.5569C28.7188 28.178 28.0394 27.4986 28.0394 26.6605H30.3156V28.178ZM30.3156 22.108H29.5569C28.7188 22.108 28.0394 21.4286 28.0394 20.5906H30.3156V22.108ZM37.903 44.1116H34.8681V38.8004H37.903V44.1116ZM40.938 36.5242C40.938 36.9432 40.5983 37.2829 40.1793 37.2829H32.5918C32.1728 37.2829 31.8331 36.9432 31.8331 36.5242V18.3143C31.8331 17.8953 32.1728 17.5556 32.5918 17.5556H40.1793C40.5983 17.5556 40.938 17.8953 40.938 18.3143V36.5242ZM44.7317 32.7305C44.7317 33.5685 44.0523 34.2479 43.2142 34.2479H42.4555V32.7305H44.7317ZM44.7317 26.6605C44.7317 27.4986 44.0523 28.178 43.2142 28.178H42.4555V26.6605H44.7317Z" fill="#979797"/>
<path d="M4.51851 24.384H22.7284C23.1474 24.384 23.4871 24.0443 23.4871 23.6253C23.4871 23.2062 23.1474 22.8665 22.7284 22.8665H21.9696V15.2791C21.9696 14.022 20.9505 13.0029 19.6934 13.0029C18.4362 13.0029 17.4171 14.022 17.4171 15.2791V16.9362C16.8979 16.741 16.3239 16.7508 15.8116 16.9635C15.6547 16.3488 15.2441 15.8295 14.6821 15.5349C14.1202 15.2403 13.4596 15.1981 12.8647 15.4187V14.5204C12.8647 13.2632 11.8456 12.2441 10.5885 12.2441C9.33133 12.2441 8.31223 13.2632 8.31223 14.5204V14.66C8.06923 14.5701 7.81255 14.5229 7.55348 14.5204C6.29636 14.5204 5.27725 15.5395 5.27725 16.7966V22.8665H4.51851C4.09947 22.8665 3.75977 23.2062 3.75977 23.6253C3.75977 24.0443 4.09947 24.384 4.51851 24.384ZM18.9346 15.2791C18.9346 14.8601 19.2743 14.5204 19.6934 14.5204C20.1124 14.5204 20.4521 14.8601 20.4521 15.2791V22.8665H18.9346V15.2791ZM16.6584 18.3141C17.0774 18.3141 17.4171 18.6538 17.4171 19.0728V22.8665H15.8997V19.0728C15.8997 18.6538 16.2394 18.3141 16.6584 18.3141ZM13.6234 16.7966C14.0425 16.7966 14.3822 17.1363 14.3822 17.5553V22.8665H12.8647V17.5553C12.8647 17.1363 13.2044 16.7966 13.6234 16.7966ZM9.82971 14.5204C9.82971 14.1013 10.1694 13.7616 10.5885 13.7616C11.0075 13.7616 11.3472 14.1013 11.3472 14.5204V22.8665H9.82971V14.5204ZM6.79474 16.7966C6.79474 16.3776 7.13444 16.0379 7.55348 16.0379C7.97253 16.0379 8.31223 16.3776 8.31223 16.7966V22.8665H6.79474V16.7966Z" fill="#979797"/>
<path d="M18.1759 27.4193C18.5949 27.4193 18.9346 27.0796 18.9346 26.6606C18.9346 26.2416 18.5949 25.9019 18.1759 25.9019H4.51851C4.09947 25.9019 3.75977 26.2416 3.75977 26.6606C3.75977 27.0796 4.09947 27.4193 4.51851 27.4193H18.1759Z" fill="#979797"/>
<path d="M22.7294 25.9019H21.2119C20.7928 25.9019 20.4531 26.2416 20.4531 26.6606C20.4531 27.0796 20.7928 27.4193 21.2119 27.4193H22.7294C23.1484 27.4193 23.4881 27.0796 23.4881 26.6606C23.4881 26.2416 23.1484 25.9019 22.7294 25.9019Z" fill="#979797"/>
<path d="M24.2455 30.4541H15.8994C15.4803 30.4541 15.1406 30.7938 15.1406 31.2128C15.1406 31.6319 15.4803 31.9716 15.8994 31.9716H24.2455C24.6646 31.9716 25.0043 31.6319 25.0043 31.2128C25.0043 30.7938 24.6646 30.4541 24.2455 30.4541Z" fill="#979797"/>
<path d="M15.8994 35.0067H17.4169C17.8359 35.0067 18.1756 34.667 18.1756 34.248C18.1756 33.829 17.8359 33.4893 17.4169 33.4893H15.8994C15.4803 33.4893 15.1406 33.829 15.1406 34.248C15.1406 34.667 15.4803 35.0067 15.8994 35.0067Z" fill="#979797"/>
<path d="M24.2458 33.4893H20.4521C20.0331 33.4893 19.6934 33.829 19.6934 34.248C19.6934 34.667 20.0331 35.0067 20.4521 35.0067H24.2458C24.6649 35.0067 25.0046 34.667 25.0046 34.248C25.0046 33.829 24.6649 33.4893 24.2458 33.4893Z" fill="#979797"/>
<path d="M19.6931 36.5239H15.8994C15.4803 36.5239 15.1406 36.8636 15.1406 37.2827C15.1406 37.7017 15.4803 38.0414 15.8994 38.0414H19.6931C20.1121 38.0414 20.4518 37.7017 20.4518 37.2827C20.4518 36.8636 20.1121 36.5239 19.6931 36.5239Z" fill="#979797"/>
<path d="M9.07004 29.6958C6.55578 29.6958 4.51758 31.734 4.51758 34.2483C4.51758 36.7625 6.55578 38.8007 9.07004 38.8007C11.5843 38.8007 13.6225 36.7625 13.6225 34.2483C13.62 31.735 11.5833 29.6983 9.07004 29.6958ZM11.9973 33.4895H9.82878V31.321C10.8905 31.5986 11.7197 32.4278 11.9973 33.4895ZM8.31129 31.321V33.7012L6.05555 34.4508C6.051 34.3826 6.03506 34.3181 6.03506 34.2483C6.04024 32.8686 6.97539 31.6659 8.31129 31.321ZM9.07004 37.2832C8.04165 37.281 7.08437 36.7581 6.52673 35.894L9.19371 35.007H12.0011C11.6558 36.3443 10.4512 37.2798 9.07004 37.2832Z" fill="#979797"/>
</svg>
