<svg width="146" height="27" viewBox="0 0 146 27" fill="none" xmlns="http://www.w3.org/2000/svg">
<g clip-path="url(#clip0_2_28336)">
<path d="M40.8142 1.27148H26.1919C23.8863 1.27148 21.6455 1.27148 19.6402 2.26212C17.6334 3.25424 15.8621 5.23849 14.4972 9.20401C14.2037 10.0562 14.0469 10.7925 14.0252 11.4284C14.0048 12.07 14.1197 12.6142 14.368 13.0863C14.6757 13.6615 15.1723 14.2057 15.7952 14.6621C16.4167 15.12 17.163 15.4916 17.9647 15.7305C17.9951 15.7375 18.4176 15.8563 18.9287 15.9975C19.4385 16.1402 20.0351 16.3112 20.4113 16.4216C20.632 16.488 20.8744 16.5727 21.0953 16.7013C21.316 16.83 21.5135 16.9996 21.6384 17.2355C21.7196 17.3938 21.7633 17.5649 21.7676 17.7486C21.7735 17.9338 21.7415 18.1331 21.6659 18.3435C21.48 18.8819 21.1955 19.2297 20.6553 19.4417C20.1166 19.6535 19.321 19.7216 18.1157 19.7298H3.06941L0.689453 26.091H16.7957C18.3116 26.091 21.0823 26.091 23.7468 24.9903C26.4098 23.8893 28.9627 21.6872 30.0443 17.285C30.451 15.6301 30.3261 14.2805 29.6597 13.222C28.9902 12.1632 27.7821 11.3961 26.0221 10.9041C26.0221 10.9041 25.6287 10.7925 25.1639 10.664C24.7036 10.534 24.1708 10.3856 23.8978 10.3092C23.4477 10.1847 23.1006 9.9304 22.8958 9.60822C22.6925 9.28605 22.6317 8.89303 22.7476 8.49304C22.8682 8.07765 23.1601 7.74553 23.5826 7.51658C24.0066 7.28912 24.5629 7.16333 25.2119 7.16333H34.5734C34.64 7.07135 34.7011 6.97117 34.7665 6.87646C36.4754 4.5233 38.5461 2.61686 40.8142 1.27148Z" fill="#F48120"/>
<path d="M40.8227 1.24414H26.2004C23.8945 1.24414 21.6553 1.24414 19.6487 2.23477C17.6419 3.2269 15.8719 5.20991 14.5067 9.17692C14.2122 10.0291 14.0551 10.7639 14.035 11.4013C14.0145 12.0414 14.1292 12.5856 14.3777 13.0577C14.684 13.6341 15.1805 14.1783 15.8035 14.6347C16.4264 15.0914 17.1715 15.4643 17.9745 15.7019C18.0049 15.7104 18.4273 15.8277 18.9387 15.9704C19.4467 16.1131 20.0436 16.2826 20.4211 16.393C20.6403 16.4606 20.8844 16.5456 21.1051 16.6727C21.3243 16.8014 21.5217 16.9722 21.6466 17.2084C21.7281 17.3652 21.7715 17.5363 21.7758 17.7215C21.7817 17.9064 21.7498 18.1058 21.6742 18.3149C21.4885 18.8548 21.2052 19.2011 20.6635 19.4144C20.1248 19.6264 19.3305 19.6943 18.1254 19.7027H3.07765L0.699219 26.0639H16.8055C18.3213 26.0639 21.0918 26.0639 23.755 24.9629C26.418 23.8619 28.9709 21.6601 30.0526 17.2564C30.4607 15.603 30.3343 14.2531 29.6679 13.1946C28.9985 12.1349 27.7904 11.3672 26.0318 10.877C26.0318 10.877 25.6369 10.7654 25.1736 10.6354C24.7134 10.5066 24.179 10.3582 23.906 10.2819C23.456 10.1576 23.1104 9.9033 22.904 9.57963C22.7022 9.25746 22.6399 8.86593 22.7561 8.46595C22.878 8.05055 23.1684 7.71844 23.5911 7.48948C24.0151 7.26177 24.5711 7.13599 25.2201 7.13599H34.5831C34.6498 7.04277 34.7093 6.94234 34.7762 6.84911C36.4852 4.49471 38.5559 2.58951 40.8227 1.24414Z" fill="#F48120"/>
<path d="M120.421 1.28711C120.922 1.67143 121.351 2.11094 121.71 2.61135C122.627 3.8988 122.979 5.42813 122.768 7.17896H127.464L120.387 26.1124H127.458L134.54 7.17896H143.626L145.831 1.28711H120.421Z" fill="#F48120"/>
<path d="M113.204 9.20422C112.446 11.19 111.087 12.4165 108.501 12.4165H108.489L107.152 12.4138L109.44 6.41156H110.741C113.121 6.41156 114.01 7.08996 113.204 9.20422ZM120.068 3.72081C118.903 2.0913 116.537 1.29134 112.828 1.28711H104.242L94.957 26.1069H102.843L106.221 17.3714C106.383 17.7304 108.376 26.1069 108.376 26.1069H116.669C116.669 26.1069 115.16 19.952 114.051 17.4661C113.766 16.826 113.468 16.1093 113.071 15.5117C115.412 14.665 118.807 12.8448 120.212 9.16047C121.077 6.89507 121.026 5.06469 120.068 3.72081Z" fill="#F48120"/>
<path d="M47.6815 13.5668C45.4962 19.3893 43.909 20.8549 41.5219 20.8549H41.5176C39.1928 20.852 38.3767 19.4203 40.5518 13.6259C42.1781 9.3002 44.2822 6.53438 46.8305 6.53438H46.832C49.2526 6.53711 49.8073 7.90237 47.6815 13.5668ZM55.18 3.59604C53.9065 1.82259 51.724 0.920952 48.6907 0.917969C46.7071 0.917969 44.7787 1.3617 42.974 2.19125C40.3891 3.38001 38.0485 5.367 36.1362 7.99982C34.8931 9.71137 33.8303 11.6926 32.9969 13.9101C31.4287 18.0919 31.446 21.4881 33.0521 23.7237C33.9609 24.9903 35.8514 26.5009 39.698 26.5037H39.7126C46.7189 26.5037 51.9492 22.0335 55.2612 13.2205C56.1355 10.8872 57.2897 6.53562 55.18 3.59604Z" fill="#F48120"/>
<path d="M83.1773 1.27246H68.2751C64.1087 1.27246 61.0072 3.32433 59.5434 7.16431L52.4648 26.092H60.2172L63.8546 16.3617L70.7081 16.3674L72.6572 11.1552L65.8264 11.151L66.9254 8.13381C67.1568 7.59387 67.7029 7.16431 68.5059 7.16431C68.9532 7.16431 73.9813 7.16431 76.5863 7.16555C76.6529 7.07233 76.7124 6.97215 76.7791 6.87744C78.4883 4.52428 80.9089 2.61783 83.1773 1.27246Z" fill="#F48120"/>
<path d="M89.9546 13.5668C87.7692 19.3893 86.1823 20.8549 83.7965 20.8549H83.7906C81.4641 20.852 80.6526 19.4203 82.828 13.6259C84.4516 9.3002 86.5583 6.53438 89.1025 6.53438H89.1063C91.5272 6.53711 92.0822 7.90237 89.9546 13.5668ZM97.4543 3.59604C96.1801 1.82259 93.9998 0.920952 90.9622 0.917969C88.9802 0.917969 87.0533 1.3617 85.2473 2.19125C82.664 3.38001 80.3231 5.367 78.4106 7.99982C77.1675 9.71137 76.1049 11.6926 75.2728 13.9101C73.7002 18.0919 73.7204 21.4881 75.3262 23.7237C76.2357 24.9903 78.126 26.5009 81.9741 26.5037H81.9871C88.9919 26.5037 94.2236 22.0335 97.5327 13.2205C98.4103 10.8872 99.563 6.53562 97.4543 3.59604Z" fill="#F48120"/>
<path d="M120.431 1.25879C120.931 1.64311 121.361 2.08113 121.719 2.58303C122.637 3.86899 122.987 5.39956 122.778 7.15064H127.474L120.396 26.084H127.468L134.548 7.15064H143.635L145.84 1.25879H120.431Z" fill="#F48120"/>
<path d="M113.214 9.1759C112.457 11.1599 111.096 12.3867 108.51 12.3867H108.5L107.163 12.384L109.45 6.38324H110.752C113.132 6.38324 114.021 7.06015 113.214 9.1759ZM120.077 3.69224C118.914 2.06273 116.548 1.26302 112.839 1.25879H104.253L94.9668 26.0783H102.854L106.23 17.3431C106.394 17.7021 108.385 26.0783 108.385 26.0783H116.68C116.68 26.0783 115.169 19.9237 114.062 17.4363C113.777 16.7974 113.479 16.081 113.081 15.4819C115.424 14.6352 118.817 12.8163 120.222 9.1319C121.087 6.8665 121.036 5.03637 120.077 3.69224Z" fill="#F48120"/>
<path d="M47.6893 13.5397C45.504 19.3624 43.9168 20.8266 41.5294 20.8266H41.5251C39.2006 20.8251 38.3845 19.392 40.5612 13.5976C42.1859 9.27163 44.29 6.50606 46.8382 6.50606H46.8398C49.2619 6.50879 49.8164 7.8753 47.6893 13.5397ZM55.189 3.56921C53.9143 1.79551 51.7333 0.893874 48.6984 0.889648C46.7133 0.889648 44.7865 1.33487 42.9817 2.16293C40.3969 3.35293 38.0563 5.33868 36.144 7.97299C34.9024 9.68305 33.8381 11.6658 33.006 13.8817C31.4362 18.065 31.4538 21.461 33.0596 23.6968C33.9702 24.9632 35.8607 26.4726 39.7058 26.4768H39.7203C46.7264 26.4768 51.9568 22.0067 55.269 13.1922C56.143 10.8589 57.299 6.5073 55.189 3.56921Z" fill="#F48120"/>
<path d="M83.1866 1.24414H68.2844C64.1165 1.24414 61.015 3.29626 59.5512 7.13599L52.4727 26.0639H60.2266L63.8639 16.3336L70.7159 16.3378L72.6645 11.1271L65.8345 11.1229L66.9348 8.10549C67.1641 7.56431 67.7115 7.13474 68.5132 7.13474C68.9605 7.13474 73.9906 7.13599 76.5956 7.13599C76.661 7.04426 76.7205 6.94234 76.7872 6.84911C78.4977 4.49471 80.9183 2.58951 83.1866 1.24414Z" fill="#F48120"/>
<path d="M89.9637 13.5397C87.7786 19.3624 86.193 20.8266 83.8069 20.8266H83.801C81.4732 20.8251 80.6617 19.392 82.8353 13.5976C84.4602 9.27163 86.5656 6.50606 89.1111 6.50606H89.1157C91.5363 6.50879 92.0908 7.8753 89.9637 13.5397ZM97.4634 3.56921C96.1884 1.79551 94.0092 0.893874 90.9726 0.889648C88.9895 0.889648 87.0624 1.33487 85.2571 2.16293C82.6723 3.35293 80.3322 5.33868 78.4197 7.97299C77.1768 9.68305 76.1156 11.6658 75.2819 13.8817C73.7106 18.065 73.7295 21.461 75.3368 23.6968C76.2443 24.9632 78.1354 26.4726 81.9845 26.4768H81.9962C89.0025 26.4768 94.234 22.0067 97.5418 13.1922C98.4202 10.8589 99.5734 6.5073 97.4634 3.56921Z" fill="#F48120"/>
</g>
<defs>
<clipPath id="clip0_2_28336">
<rect width="145.15" height="25.6148" fill="white" transform="translate(0.689453 0.889648)"/>
</clipPath>
</defs>
</svg>
