<svg width="47" height="47" viewBox="0 0 47 47" fill="none" xmlns="http://www.w3.org/2000/svg">
<mask id="mask0_1619_14466" style="mask-type:alpha" maskUnits="userSpaceOnUse" x="0" y="0" width="47" height="47">
<rect x="0.724609" y="0.84082" width="45.5246" height="45.5246" fill="#EAEAEA"/>
</mask>
<g mask="url(#mask0_1619_14466)">
<path d="M35.7611 15.1743L25.9556 5.78167C25.2561 5.11164 24.3262 4.74268 23.337 4.74268C22.3479 4.74268 21.418 5.11164 20.7185 5.78167L10.9129 15.1743C9.46913 16.5574 9.46913 18.8078 10.9129 20.1909L20.7185 29.5836C21.1159 29.9643 21.5878 30.2475 22.1026 30.4213V45.0645H24.5714V30.4213C25.0862 30.2474 25.5582 29.9643 25.9556 29.5836L35.7611 20.191C37.2049 18.8078 37.2049 16.5574 35.7611 15.1743V15.1743ZM34.0155 18.5188L24.2099 27.9114C23.7286 28.3723 22.9454 28.3723 22.4641 27.9114L12.6587 18.5188C12.1774 18.0578 12.1774 17.3076 12.6587 16.8465L22.4641 7.45384C22.7048 7.22333 23.0209 7.10804 23.337 7.10804C23.6531 7.10804 23.9693 7.22333 24.2099 7.45384L34.0154 16.8465C34.4968 17.3076 34.4968 18.0577 34.0155 18.5188Z" fill="#979797"/>
<path d="M14.7266 17.6831L23.3366 25.9305L31.9467 17.6831L23.3366 9.43555L14.7266 17.6831ZM23.3366 22.5862L18.218 17.6831L23.3366 12.7799L28.4553 17.6831L23.3366 22.5862Z" fill="#979797"/>
</g>
</svg>
