<svg width="26" height="26" viewBox="0 0 26 26" fill="none" xmlns="http://www.w3.org/2000/svg">
<g clip-path="url(#clip0_2_37269)">
<path d="M12.8103 4.42348V1.2207L8.53989 5.49107L12.8103 9.76143V6.55866C16.344 6.55866 19.2158 9.43048 19.2158 12.9642C19.2158 14.0425 18.9489 15.0674 18.4685 15.9535L20.0272 17.5121C20.8599 16.199 21.351 14.6403 21.351 12.9642C21.351 8.24545 17.529 4.42348 12.8103 4.42348ZM12.8103 19.3697C9.27653 19.3697 6.40471 16.4979 6.40471 12.9642C6.40471 11.8859 6.67161 10.861 7.15203 9.97495L5.59334 8.41627C4.76062 9.7294 4.26953 11.2881 4.26953 12.9642C4.26953 17.683 8.09151 21.5049 12.8103 21.5049V24.7077L17.0806 20.4373L12.8103 16.167V19.3697Z" fill="white"/>
</g>
<defs>
<clipPath id="clip0_2_37269">
<rect width="25.6222" height="25.6222" fill="white" transform="translate(0 0.152344)"/>
</clipPath>
</defs>
</svg>
