<svg width="32" height="36" viewBox="0 0 32 36" fill="none" xmlns="http://www.w3.org/2000/svg">
<g clip-path="url(#clip0_2:23334)">
<path d="M24.3316 16.9283C24.0069 16.9283 23.7433 17.1918 23.7433 17.5166C23.7433 20.7604 21.1042 23.3995 17.8603 23.3995C14.6165 23.3995 11.9774 20.7604 11.9774 17.5166C11.9774 14.2727 14.6165 11.6336 17.8603 11.6336C19.4396 11.6336 20.9221 12.2507 22.0352 13.3715C22.2637 13.6024 22.6364 13.6035 22.867 13.3744C23.0976 13.1455 23.0988 12.7732 22.87 12.5425C21.5345 11.1977 19.7552 10.457 17.8603 10.457C13.9676 10.457 10.8008 13.6238 10.8008 17.5166C10.8008 21.4093 13.9676 24.5761 17.8603 24.5761C21.7531 24.5761 24.9199 21.4093 24.9199 17.5166C24.9199 17.1918 24.6563 16.9283 24.3316 16.9283Z" fill="#2D9BDA"/>
</g>
<defs>
<clipPath id="clip0_2:23334">
<rect width="14.1191" height="14.1191" fill="white" transform="translate(10.8008 10.457)"/>
</clipPath>
</defs>
</svg>
