<svg width="24" height="23" viewBox="0 0 24 23" fill="none" xmlns="http://www.w3.org/2000/svg">
<path d="M10.7061 7.70985V12.4529L14.7377 14.8434L15.4681 13.6292L12.129 11.6466V7.70985H10.7061ZM20.1922 9.60707V2.9668L17.6879 5.47113C16.1511 3.92489 14.0167 2.9668 11.6547 2.9668C6.94009 2.9668 3.11719 6.7897 3.11719 11.5043C3.11719 16.2189 6.94009 20.0418 11.6547 20.0418C16.3693 20.0418 20.1922 16.2189 20.1922 11.5043H18.295C18.295 15.1659 15.3163 18.1446 11.6547 18.1446C7.99305 18.1446 5.01441 15.1659 5.01441 11.5043C5.01441 7.84266 7.99305 4.86402 11.6547 4.86402C13.4855 4.86402 15.1456 5.61342 16.3503 6.80867L13.5519 9.60707H20.1922Z" fill="current"/>
</svg>
