<svg width="32" height="35" viewBox="0 0 32 35" fill="none" xmlns="http://www.w3.org/2000/svg">
<g clip-path="url(#clip0_2:23347)">
<path d="M25.3058 17.2935C24.9349 17.2935 24.6339 17.5945 24.6339 17.9654C24.6339 21.6704 21.6197 24.6847 17.9147 24.6847C14.2097 24.6847 11.1954 21.6704 11.1954 17.9654C11.1954 14.2604 14.2097 11.2462 17.9147 11.2462C19.7184 11.2462 21.4117 11.951 22.6826 13.2311C22.944 13.4941 23.3697 13.4958 23.6327 13.2344C23.8961 12.973 23.8975 12.5474 23.6361 12.284C22.1112 10.7483 20.0789 9.90234 17.9147 9.90234C13.4685 9.90234 9.85156 13.5193 9.85156 17.9654C9.85156 22.4116 13.4685 26.0285 17.9147 26.0285C22.3605 26.0285 25.9778 22.4116 25.9778 17.9654C25.9778 17.5945 25.6767 17.2935 25.3058 17.2935Z" fill="#FB0808"/>
<path d="M18.8643 17.9654L20.405 16.4247C20.6674 16.1623 20.6674 15.737 20.405 15.4746C20.1426 15.2122 19.7173 15.2122 19.4549 15.4746L17.9142 17.0153L16.3735 15.4746C16.1114 15.2122 15.6854 15.2122 15.4234 15.4746C15.161 15.737 15.161 16.1623 15.4234 16.4247L16.9641 17.9654L15.4234 19.5062C15.161 19.7686 15.161 20.1939 15.4234 20.4563C15.5544 20.5876 15.7264 20.6531 15.8984 20.6531C16.0704 20.6531 16.2424 20.5876 16.3735 20.4563L17.9142 18.9155L19.4549 20.4563C19.5863 20.5876 19.7579 20.6531 19.9299 20.6531C20.102 20.6531 20.2736 20.5876 20.405 20.4563C20.6674 20.1939 20.6674 19.7686 20.405 19.5062L18.8643 17.9654Z" fill="#FD0808"/>
</g>
<defs>
<clipPath id="clip0_2:23347">
<rect width="16.1262" height="16.1262" fill="white" transform="translate(9.85156 9.90234)"/>
</clipPath>
</defs>
</svg>
